<svg width="42" height="40" viewBox="0 0 42 40" fill="none" xmlns="http://www.w3.org/2000/svg">
<g clip-path="url(#clip0_2721_56440)">
<path fill-rule="evenodd" clip-rule="evenodd" d="M34.544 1.4315H40.0204L40.5338 0.00535242H34.544C34.544 0.00535242 30.0373 -0.279878 28.0978 3.31402L24.732 9.01863C23.477 11.4146 19.0845 10.9582 19.0845 10.9582H0.601556V14.7803H19.5979C19.5979 14.7803 23.1918 14.7803 24.9032 12.2703L29.638 3.88448C29.638 3.88448 31.0071 1.4315 34.544 1.4315ZM38.7654 4.22488H34.4869C32.3668 4.22488 31.6086 5.54784 31.3445 6.00852C31.2889 6.10564 31.2552 6.16444 31.2353 6.16444L26.0441 16.6609C26.0441 16.6609 24.5609 20.0837 20.0543 20.0837H0.601556V16.3186H19.5408C24.675 16.3186 25.7018 13.8086 25.7018 13.8086L30.0373 5.3658C31.0071 2.91282 33.403 2.79872 33.403 2.79872H39.2788L38.7654 4.22488ZM19.8302 21.9127H0.833903V25.7348H20.3437C20.3437 25.7348 24.7362 25.7348 26.3905 23.1677C27.9878 20.6577 33.5783 7.93641 33.5783 7.93641C33.5783 7.93641 33.9777 6.79549 35.0045 6.79549H37.7427L38.1991 5.3123L33.6924 5.54048C32.6656 5.54048 32.2663 6.62436 32.2663 6.62436C32.2663 6.62436 27.4174 16.8356 25.8201 19.4027C24.2228 21.8557 19.8302 21.9127 19.8302 21.9127ZM0.374904 31.4411L2.99902 31.8975C3.17016 31.4411 3.39834 30.9848 3.79767 30.8136C4.02585 30.5854 4.48222 30.5284 4.99563 30.5284C5.79428 30.5284 6.30769 30.6425 6.59292 30.8707C6.87815 31.0989 6.99225 31.4982 6.99225 32.0686V32.4109C6.42179 32.6391 5.50905 32.8673 4.0829 33.1525C3.11311 33.3237 2.31447 33.5518 1.74401 33.78C1.21569 34.0418 0.773601 34.4497 0.470242 34.9553C0.166883 35.4609 0.014999 36.043 0.0326275 36.6323C0.0326275 37.6021 0.374904 38.4007 1.1165 38.9142C1.74401 39.5417 2.65675 39.8839 3.85471 39.8839C4.48222 39.8839 5.10973 39.7128 5.68019 39.4846C6.25065 39.2564 6.82111 38.8571 7.33452 38.3437L7.39157 38.743L7.6768 39.6558H10.5861C10.358 39.1423 10.1298 38.5719 10.0727 38.1726C9.95864 37.7162 9.9016 36.9746 9.9016 36.0048L9.95864 32.525C9.95864 31.2129 9.84455 30.3002 9.55932 29.8438C9.33113 29.3304 8.81772 28.9311 8.19021 28.5888C7.50566 28.3036 6.53588 28.1325 5.22382 28.1325C3.79767 28.1325 2.65675 28.4177 1.91515 28.9882C1.17355 29.5016 0.660134 30.3002 0.374904 31.4411ZM5.16677 34.8069L6.99225 34.3505V34.8639L6.87815 36.3471C6.70702 36.7464 6.47883 37.0887 6.13656 37.3169C5.62314 37.7162 5.16677 37.8873 4.59631 37.8873C4.0829 37.8873 3.74062 37.7162 3.39834 37.431C3.11311 37.0887 2.94198 36.7464 2.94198 36.3471C2.94198 35.9478 3.17016 35.5484 3.56948 35.3203C3.85471 35.1491 4.36813 34.978 5.16677 34.8069ZM21.2538 36.6323L18.3444 36.176C18.1733 36.6894 17.9451 37.0887 17.6028 37.431C17.3176 37.6592 16.8612 37.7732 16.4619 37.7732C15.7773 37.7732 15.1498 37.5451 14.6935 37.0887C14.2941 36.5753 14.0089 35.8907 14.0089 34.978H21.4249C21.4819 32.6961 21.0256 30.9848 20.0558 29.9009C19.029 28.817 17.7169 28.2466 16.0626 28.2466C14.5794 28.2466 13.3814 28.817 12.3546 29.8438C11.4418 30.8707 10.9284 32.3539 10.9284 34.2364C10.9284 35.7766 11.3277 37.0887 12.0693 38.1155C12.9821 39.3705 14.4653 39.998 16.4048 39.998C17.4966 40.0479 18.5757 39.7482 19.4853 39.1423C20.284 38.5719 20.9115 37.7162 21.2538 36.6323ZM17.774 31.2129C18.2303 31.6123 18.4585 32.2968 18.4585 33.1525H14.0089C14.0089 32.3539 14.2371 31.6693 14.6364 31.2129C15.0928 30.7566 15.6062 30.5284 16.2337 30.5284C16.8612 30.5284 17.3746 30.7566 17.774 31.2129ZM22.6799 39.7128H25.6463V36.233C25.6463 34.2934 25.7604 33.0384 25.9315 32.468C26.1027 31.8405 26.3309 31.4411 26.6161 31.2129C26.8443 30.9848 27.2436 30.8136 27.6429 30.8136C28.0993 30.8136 28.5557 30.9848 29.0691 31.327L29.9248 28.7029C29.2973 28.3606 28.6697 28.1325 27.9852 28.1325C27.5288 28.1325 27.0725 28.3036 26.6731 28.5318C26.3309 28.76 25.8745 29.2163 25.4181 30.015V28.4177H22.6799V39.7128ZM30.1529 31.0418C29.6966 32.0116 29.4684 32.9243 29.4684 33.9512C29.4684 35.2062 29.6966 36.3471 30.1529 37.2598C30.5523 38.1726 31.2939 38.8001 32.2636 39.2564C33.1764 39.7699 34.2032 39.998 35.23 39.998C36.0083 40.0142 36.7817 39.871 37.5025 39.5771C38.2234 39.2832 38.8764 38.8448 39.4215 38.2891C39.9666 37.7333 40.3921 37.0719 40.672 36.3455C40.9518 35.6191 41.08 34.8431 41.0487 34.0653C41.0487 32.3539 40.5353 30.9848 39.4515 29.9009C38.3676 28.76 36.9414 28.1895 35.23 28.1895C34.1462 28.1895 33.1764 28.4177 32.2636 28.9311C31.3509 29.4445 30.6664 30.1291 30.1529 31.0418ZM33.3475 36.6323C32.7771 36.0048 32.5489 35.2062 32.5489 34.0653C32.5489 32.9814 32.7771 32.1257 33.3475 31.5552C33.8609 30.9848 34.5455 30.6425 35.3441 30.6425C35.7141 30.6459 36.079 30.7292 36.4137 30.8867C36.7485 31.0443 37.0453 31.2723 37.2837 31.5552C37.7971 32.1257 38.0823 32.9814 38.0823 34.0653C38.0823 35.2062 37.7971 36.0619 37.2837 36.6323C36.7703 37.2598 36.1428 37.5451 35.3441 37.5451C34.4884 37.5451 33.8609 37.2598 33.3475 36.6323Z" fill="#FAFAFA"/>
</g>
<defs>
<clipPath id="clip0_2721_56440">
<rect width="41.0221" height="40" fill="white" transform="translate(0.03125)"/>
</clipPath>
</defs>
</svg>
