<svg width="101" height="40" viewBox="0 0 101 40" fill="none" xmlns="http://www.w3.org/2000/svg">
<g clip-path="url(#clip0_2721_56412)">
<path fill-rule="evenodd" clip-rule="evenodd" d="M74.9313 21.7499L64.9044 33.9332C66.0462 33.6794 66.8231 32.9944 67.4693 32.4247C67.6468 32.2681 67.8145 32.1203 67.9771 31.9925C68.624 31.5612 70.7804 29.7283 72.3437 28.165C73.4845 27.0738 74.8077 26.8497 75.4739 26.7368C75.5318 26.727 75.5847 26.7181 75.6321 26.7094L83.6106 24.8765C87.8154 23.1515 90.0796 21.7499 91.4273 20.8873C89.9952 21.2965 89.7432 21.333 88.8092 21.4683C88.5126 21.5112 88.1473 21.5641 87.6537 21.642C88.5124 21.1547 89.481 20.9171 90.4132 20.6884C91.6465 20.3859 92.8161 20.099 93.5836 19.2701C91.5747 19.907 91.3027 19.9651 89.5697 20.3346C89.396 20.3717 89.2077 20.4119 89.0014 20.4561C90.2793 19.8283 91.4079 19.4896 92.4262 19.1841C93.8566 18.7548 95.0691 18.391 96.1713 17.3833C93.6376 18.2458 93.1524 18.4075 90.5648 19.0544C91.5731 18.5228 92.9182 17.9724 94.2882 17.4118C96.9466 16.324 99.6991 15.1977 100.268 14.0949C100.19 14.1335 100.11 14.1724 100.031 14.2116C96.9963 15.7031 93.1954 17.5712 88.678 18.5693C85.3357 19.324 81.3464 20.0248 78.2737 20.0248C76.2822 20.0248 75.735 20.725 75.1335 21.4945C75.0675 21.5791 75.0007 21.6645 74.9313 21.7499ZM73.368 21.6959L64.2575 33.448C64.0418 32.3698 64.3114 31.3995 64.6887 30.6987L64.7026 30.6735C65.2901 29.6053 65.8208 28.6405 65.8208 27.4102C65.7294 23.9843 62.7351 21.3324 60.2815 19.1596C59.8395 18.7681 59.4151 18.3922 59.0283 18.0302C56.3868 15.9277 55.093 14.2027 54.8774 12.9628C55.7938 14.0409 57.0337 15.0113 58.3275 15.8738C58.1183 15.1532 57.2875 14.4225 56.4404 13.6775C55.3232 12.6948 54.1776 11.6872 54.3922 10.6447C55.4704 11.9385 56.7642 13.1245 58.1119 14.3105C57.6862 13.2464 56.8249 12.3793 56.0057 11.5547C54.9574 10.4994 53.978 9.51346 54.0688 8.27275C55.2008 9.89 56.4946 11.3455 57.8963 12.7471C57.5494 11.7717 56.7494 10.805 55.9797 9.875C54.8353 8.49217 53.7581 7.19062 54.3383 6.0625C54.4568 6.24024 54.5752 6.41825 54.6937 6.59634C57.4854 10.7934 60.3062 15.0342 65.0122 16.8442C66.2483 17.3499 67.5577 17.6506 68.8716 17.9524C70.0788 18.2296 71.2899 18.5078 72.4515 18.9466C74.2305 19.5935 74.0688 20.7795 73.368 21.6959ZM3.34232 33.5577H0L10.5121 13.7194H14.0162L18.9219 33.5577H13.531L12.4528 28.0051H5.98384L3.34232 33.5577ZM10.4582 19.3259L6.90028 26.1183H12.0216L10.4582 19.3259ZM28.3558 19.3259H23.8275L21.9946 33.5577H26.7925L27.655 25.8488C28.248 23.6385 29.6496 22.9916 31.6982 23.8542L32.2911 19.3259C30.7817 18.9485 29.3801 20.0267 28.0324 22.3986L28.3558 19.3259ZM40.2157 19.3259H35.8491L33.8006 33.5577H38.1672L40.2157 19.3259ZM49.3801 15.0132H45.1753L42.4798 33.5577H46.7386L47.6011 27.3582H48.7332L51.1052 33.5577H56.7117L52.6146 25.4175L58.4367 19.3259H54.2319L49.0028 25.4175H47.9246L49.3801 15.0132Z" fill="#FAFAFA"/>
</g>
<defs>
<clipPath id="clip0_2721_56412">
<rect width="100.27" height="40" fill="white"/>
</clipPath>
</defs>
</svg>
