<svg width="379" height="299" viewBox="0 0 379 299" fill="none" xmlns="http://www.w3.org/2000/svg">
<g filter="url(#filter0_d_3242_55929)">
<rect x="32.6719" y="29.4062" width="313.298" height="232.736" rx="11.9352" fill="white" shape-rendering="crispEdges"/>
<rect x="51.1016" y="47.8359" width="139.244" height="16.3816" rx="4.09541" fill="#F2F2F2"/>
<path d="M52.3284 80.3594V72.9132H54.8444C55.4285 72.9132 55.906 73.0186 56.2769 73.2295C56.6502 73.438 56.9265 73.7203 57.1058 74.0767C57.2852 74.433 57.3749 74.8305 57.3749 75.2692C57.3749 75.7079 57.2852 76.1067 57.1058 76.4654C56.9289 76.8241 56.655 77.1102 56.2842 77.3235C55.9133 77.5343 55.4382 77.6398 54.8589 77.6398H53.0555V76.8399H54.8298C55.2298 76.8399 55.5509 76.7708 55.7933 76.6326C56.0357 76.4945 56.2114 76.3078 56.3205 76.0727C56.432 75.8352 56.4878 75.5673 56.4878 75.2692C56.4878 74.9711 56.432 74.7044 56.3205 74.4693C56.2114 74.2342 56.0345 74.05 55.7897 73.9167C55.5449 73.7809 55.2201 73.7131 54.8153 73.7131H53.23V80.3594H52.3284ZM60.9198 80.4757C60.4157 80.4757 59.9733 80.3557 59.5928 80.1158C59.2146 79.8758 58.9189 79.5401 58.7056 79.1086C58.4947 78.6772 58.3893 78.173 58.3893 77.5961C58.3893 77.0144 58.4947 76.5066 58.7056 76.0727C58.9189 75.6388 59.2146 75.3019 59.5928 75.062C59.9733 74.822 60.4157 74.702 60.9198 74.702C61.424 74.702 61.8652 74.822 62.2433 75.062C62.6238 75.3019 62.9195 75.6388 63.1304 76.0727C63.3437 76.5066 63.4504 77.0144 63.4504 77.5961C63.4504 78.173 63.3437 78.6772 63.1304 79.1086C62.9195 79.5401 62.6238 79.8758 62.2433 80.1158C61.8652 80.3557 61.424 80.4757 60.9198 80.4757ZM60.9198 79.7049C61.3028 79.7049 61.6179 79.6068 61.8652 79.4104C62.1124 79.2141 62.2954 78.9559 62.4142 78.636C62.5329 78.316 62.5923 77.9694 62.5923 77.5961C62.5923 77.2229 62.5329 76.875 62.4142 76.5527C62.2954 76.2303 62.1124 75.9697 61.8652 75.771C61.6179 75.5722 61.3028 75.4728 60.9198 75.4728C60.5369 75.4728 60.2218 75.5722 59.9745 75.771C59.7273 75.9697 59.5443 76.2303 59.4255 76.5527C59.3067 76.875 59.2474 77.2229 59.2474 77.5961C59.2474 77.9694 59.3067 78.316 59.4255 78.636C59.5443 78.9559 59.7273 79.2141 59.9745 79.4104C60.2218 79.6068 60.5369 79.7049 60.9198 79.7049ZM64.7602 80.3594V74.7747H65.5892V75.6182H65.6473C65.7491 75.3419 65.9334 75.1177 66.2 74.9456C66.4666 74.7735 66.7672 74.6875 67.1017 74.6875C67.1647 74.6875 67.2435 74.6887 67.338 74.6911C67.4325 74.6935 67.504 74.6972 67.5525 74.702V75.5746C67.5234 75.5673 67.4568 75.5564 67.3525 75.5419C67.2507 75.5249 67.1429 75.5164 67.029 75.5164C66.7575 75.5164 66.5151 75.5734 66.3018 75.6873C66.0909 75.7988 65.9237 75.954 65.8 76.1527C65.6788 76.349 65.6182 76.5733 65.6182 76.8253V80.3594H64.7602ZM71.3483 74.7747V75.5019H68.4542V74.7747H71.3483ZM69.2977 73.4367H70.1558V78.7596C70.1558 79.002 70.1909 79.1838 70.2612 79.305C70.3339 79.4238 70.426 79.5037 70.5375 79.5449C70.6515 79.5837 70.7714 79.6031 70.8975 79.6031C70.992 79.6031 71.0696 79.5983 71.1302 79.5886C71.1908 79.5765 71.2393 79.5668 71.2756 79.5595L71.4501 80.3303C71.392 80.3521 71.3108 80.3739 71.2065 80.3957C71.1023 80.42 70.9702 80.4321 70.8102 80.4321C70.5678 80.4321 70.3303 80.38 70.0976 80.2758C69.8673 80.1715 69.6758 80.0128 69.5231 79.7995C69.3729 79.5862 69.2977 79.3171 69.2977 78.9923V73.4367ZM75.126 74.7747V75.5019H72.1155V74.7747H75.126ZM73.0172 80.3594V74.0039C73.0172 73.684 73.0923 73.4174 73.2426 73.2041C73.3929 72.9907 73.588 72.8308 73.828 72.7241C74.0679 72.6175 74.3212 72.5641 74.5879 72.5641C74.7987 72.5641 74.9708 72.5811 75.1041 72.615C75.2375 72.649 75.3368 72.6805 75.4023 72.7096L75.155 73.4513C75.1114 73.4367 75.0508 73.4186 74.9733 73.3968C74.8981 73.3749 74.7987 73.364 74.6751 73.364C74.3915 73.364 74.1867 73.4355 74.0607 73.5785C73.937 73.7216 73.8752 73.9312 73.8752 74.2075V80.3594H73.0172ZM78.3673 80.4757C77.8631 80.4757 77.4208 80.3557 77.0402 80.1158C76.6621 79.8758 76.3664 79.5401 76.1531 79.1086C75.9422 78.6772 75.8368 78.173 75.8368 77.5961C75.8368 77.0144 75.9422 76.5066 76.1531 76.0727C76.3664 75.6388 76.6621 75.3019 77.0402 75.062C77.4208 74.822 77.8631 74.702 78.3673 74.702C78.8715 74.702 79.3126 74.822 79.6907 75.062C80.0713 75.3019 80.367 75.6388 80.5779 76.0727C80.7912 76.5066 80.8978 77.0144 80.8978 77.5961C80.8978 78.173 80.7912 78.6772 80.5779 79.1086C80.367 79.5401 80.0713 79.8758 79.6907 80.1158C79.3126 80.3557 78.8715 80.4757 78.3673 80.4757ZM78.3673 79.7049C78.7503 79.7049 79.0654 79.6068 79.3126 79.4104C79.5599 79.2141 79.7429 78.9559 79.8616 78.636C79.9804 78.316 80.0398 77.9694 80.0398 77.5961C80.0398 77.2229 79.9804 76.875 79.8616 76.5527C79.7429 76.2303 79.5599 75.9697 79.3126 75.771C79.0654 75.5722 78.7503 75.4728 78.3673 75.4728C77.9843 75.4728 77.6692 75.5722 77.422 75.771C77.1747 75.9697 76.9917 76.2303 76.873 76.5527C76.7542 76.875 76.6948 77.2229 76.6948 77.5961C76.6948 77.9694 76.7542 78.316 76.873 78.636C76.9917 78.9559 77.1747 79.2141 77.422 79.4104C77.6692 79.6068 77.9843 79.7049 78.3673 79.7049ZM83.0657 72.9132V80.3594H82.2077V72.9132H83.0657ZM84.6373 80.3594V74.7747H85.4954V80.3594H84.6373ZM85.0736 73.844C84.9064 73.844 84.7621 73.787 84.6409 73.6731C84.5222 73.5592 84.4628 73.4222 84.4628 73.2622C84.4628 73.1022 84.5222 72.9653 84.6409 72.8514C84.7621 72.7375 84.9064 72.6805 85.0736 72.6805C85.2409 72.6805 85.3839 72.7375 85.5026 72.8514C85.6238 72.9653 85.6844 73.1022 85.6844 73.2622C85.6844 73.4222 85.6238 73.5592 85.5026 73.6731C85.3839 73.787 85.2409 73.844 85.0736 73.844ZM89.3357 80.4757C88.8315 80.4757 88.3892 80.3557 88.0086 80.1158C87.6305 79.8758 87.3348 79.5401 87.1215 79.1086C86.9106 78.6772 86.8052 78.173 86.8052 77.5961C86.8052 77.0144 86.9106 76.5066 87.1215 76.0727C87.3348 75.6388 87.6305 75.3019 88.0086 75.062C88.3892 74.822 88.8315 74.702 89.3357 74.702C89.8399 74.702 90.281 74.822 90.6592 75.062C91.0397 75.3019 91.3354 75.6388 91.5463 76.0727C91.7596 76.5066 91.8663 77.0144 91.8663 77.5961C91.8663 78.173 91.7596 78.6772 91.5463 79.1086C91.3354 79.5401 91.0397 79.8758 90.6592 80.1158C90.281 80.3557 89.8399 80.4757 89.3357 80.4757ZM89.3357 79.7049C89.7187 79.7049 90.0338 79.6068 90.281 79.4104C90.5283 79.2141 90.7113 78.9559 90.83 78.636C90.9488 78.316 91.0082 77.9694 91.0082 77.5961C91.0082 77.2229 90.9488 76.875 90.83 76.5527C90.7113 76.2303 90.5283 75.9697 90.281 75.771C90.0338 75.5722 89.7187 75.4728 89.3357 75.4728C88.9527 75.4728 88.6376 75.5722 88.3904 75.771C88.1432 75.9697 87.9602 76.2303 87.8414 76.5527C87.7226 76.875 87.6632 77.2229 87.6632 77.5961C87.6632 77.9694 87.7226 78.316 87.8414 78.636C87.9602 78.9559 88.1432 79.2141 88.3904 79.4104C88.6376 79.6068 88.9527 79.7049 89.3357 79.7049ZM96.4774 72.9132L98.688 79.1814H98.7752L100.986 72.9132H101.931L99.197 80.3594H98.2662L95.5321 72.9132H96.4774ZM104.098 80.4903C103.744 80.4903 103.423 80.4236 103.135 80.2903C102.846 80.1546 102.617 79.9594 102.447 79.7049C102.278 79.448 102.193 79.1377 102.193 78.7742C102.193 78.4542 102.256 78.1948 102.382 77.9961C102.508 77.7949 102.676 77.6373 102.887 77.5234C103.098 77.4095 103.331 77.3247 103.585 77.2689C103.842 77.2107 104.101 77.1647 104.36 77.1308C104.699 77.0871 104.974 77.0544 105.185 77.0326C105.399 77.0083 105.554 76.9684 105.651 76.9126C105.75 76.8569 105.8 76.7599 105.8 76.6217V76.5926C105.8 76.2339 105.702 75.9552 105.505 75.7564C105.311 75.5576 105.017 75.4583 104.622 75.4583C104.212 75.4583 103.891 75.548 103.658 75.7273C103.425 75.9067 103.262 76.0982 103.167 76.3018L102.353 76.0109C102.498 75.6716 102.692 75.4074 102.935 75.2183C103.179 75.0268 103.446 74.8935 103.735 74.8184C104.025 74.7408 104.311 74.702 104.593 74.702C104.772 74.702 104.978 74.7238 105.211 74.7675C105.446 74.8087 105.672 74.8947 105.891 75.0256C106.111 75.1565 106.294 75.354 106.44 75.6182C106.585 75.8824 106.658 76.2363 106.658 76.6799V80.3594H105.8V79.6031H105.756C105.698 79.7243 105.601 79.854 105.465 79.9922C105.329 80.1303 105.149 80.2479 104.923 80.3448C104.698 80.4418 104.423 80.4903 104.098 80.4903ZM104.229 79.7195C104.568 79.7195 104.854 79.6528 105.087 79.5195C105.322 79.3862 105.499 79.2141 105.618 79.0032C105.739 78.7923 105.8 78.5705 105.8 78.3379V77.5525C105.763 77.5961 105.683 77.6361 105.56 77.6725C105.439 77.7064 105.298 77.7367 105.138 77.7634C104.98 77.7876 104.826 77.8094 104.676 77.8288C104.528 77.8458 104.408 77.8603 104.316 77.8725C104.093 77.9016 103.885 77.9488 103.691 78.0143C103.499 78.0773 103.344 78.173 103.226 78.3015C103.109 78.4275 103.051 78.5996 103.051 78.8178C103.051 79.1159 103.161 79.3413 103.382 79.494C103.605 79.6443 103.887 79.7195 104.229 79.7195ZM109.082 72.9132V80.3594H108.224V72.9132H109.082ZM114.173 78.0761V74.7747H115.031V80.3594H114.173V79.4141H114.115C113.984 79.6977 113.78 79.9388 113.504 80.1376C113.228 80.3339 112.879 80.4321 112.457 80.4321C112.108 80.4321 111.798 80.3557 111.526 80.203C111.255 80.0479 111.041 79.8152 110.886 79.505C110.731 79.1923 110.654 78.7984 110.654 78.3233V74.7747H111.512V78.2651C111.512 78.6723 111.625 78.9971 111.853 79.2395C112.084 79.4819 112.377 79.6031 112.733 79.6031C112.947 79.6031 113.163 79.5486 113.384 79.4395C113.607 79.3304 113.794 79.1632 113.944 78.9378C114.097 78.7123 114.173 78.4251 114.173 78.0761ZM118.944 80.4757C118.406 80.4757 117.942 80.357 117.552 80.1194C117.164 79.8794 116.864 79.5449 116.654 79.1159C116.445 78.6845 116.341 78.1827 116.341 77.6107C116.341 77.0386 116.445 76.5345 116.654 76.0982C116.864 75.6595 117.158 75.3177 117.533 75.0729C117.912 74.8256 118.353 74.702 118.857 74.702C119.148 74.702 119.435 74.7505 119.719 74.8474C120.002 74.9444 120.26 75.102 120.493 75.3201C120.726 75.5358 120.911 75.8219 121.049 76.1782C121.187 76.5345 121.257 76.9732 121.257 77.4943V77.8579H116.952V77.1162H120.384C120.384 76.8011 120.321 76.5199 120.195 76.2727C120.071 76.0255 119.894 75.8303 119.664 75.6873C119.436 75.5443 119.167 75.4728 118.857 75.4728C118.515 75.4728 118.219 75.5576 117.97 75.7273C117.722 75.8946 117.532 76.1127 117.399 76.3818C117.266 76.6508 117.199 76.9393 117.199 77.2471V77.7416C117.199 78.1633 117.272 78.5209 117.417 78.8141C117.565 79.105 117.77 79.3268 118.032 79.4795C118.293 79.6298 118.598 79.7049 118.944 79.7049C119.17 79.7049 119.373 79.6734 119.555 79.6104C119.739 79.5449 119.898 79.448 120.031 79.3195C120.165 79.1886 120.268 79.0262 120.34 78.8323L121.169 79.065C121.082 79.3462 120.935 79.5934 120.729 79.8067C120.523 80.0176 120.269 80.1824 119.966 80.3012C119.663 80.4175 119.322 80.4757 118.944 80.4757Z" fill="#666666"/>
<path d="M283.387 67.7927V62.9934H284.202V67.7927H283.387ZM281.395 65.8002V64.9858H286.194V65.8002H281.395ZM290.558 61.6554V69.1016H289.656V62.6007H289.613L287.795 63.8078V62.8916L289.656 61.6554H290.558ZM295.026 69.2034C294.6 69.2034 294.216 69.1185 293.874 68.9489C293.532 68.7792 293.258 68.5465 293.052 68.2508C292.846 67.9551 292.733 67.6181 292.714 67.24H293.587C293.621 67.5769 293.773 67.8557 294.045 68.0763C294.319 68.2944 294.646 68.4035 295.026 68.4035C295.332 68.4035 295.603 68.332 295.841 68.189C296.081 68.046 296.269 67.8496 296.404 67.6C296.543 67.3479 296.612 67.0631 296.612 66.7455C296.612 66.4207 296.54 66.1311 296.397 65.8766C296.257 65.6196 296.063 65.4172 295.815 65.2694C295.568 65.1215 295.286 65.0464 294.968 65.044C294.74 65.0415 294.506 65.0767 294.267 65.1494C294.027 65.2197 293.829 65.3106 293.674 65.4221L292.83 65.3203L293.281 61.6554H297.15V62.4553H294.037L293.776 64.6513H293.819C293.972 64.5301 294.163 64.4295 294.394 64.3495C294.624 64.2695 294.864 64.2295 295.114 64.2295C295.569 64.2295 295.975 64.3386 296.332 64.5568C296.69 64.7725 296.972 65.0682 297.175 65.4439C297.381 65.8196 297.484 66.2486 297.484 66.731C297.484 67.2061 297.378 67.6303 297.164 68.0035C296.953 68.3744 296.663 68.6677 296.292 68.8834C295.921 69.0967 295.499 69.2034 295.026 69.2034ZM299.288 69.1597C299.109 69.1597 298.955 69.0955 298.827 68.967C298.698 68.8386 298.634 68.6847 298.634 68.5053C298.634 68.3259 298.698 68.172 298.827 68.0435C298.955 67.9151 299.109 67.8508 299.288 67.8508C299.468 67.8508 299.622 67.9151 299.75 68.0435C299.879 68.172 299.943 68.3259 299.943 68.5053C299.943 68.6241 299.913 68.7331 299.852 68.8325C299.794 68.9319 299.715 69.0119 299.616 69.0725C299.519 69.1306 299.41 69.1597 299.288 69.1597ZM303.645 69.2034C303.219 69.2034 302.834 69.1185 302.493 68.9489C302.151 68.7792 301.877 68.5465 301.671 68.2508C301.465 67.9551 301.352 67.6181 301.333 67.24H302.205C302.239 67.5769 302.392 67.8557 302.663 68.0763C302.937 68.2944 303.265 68.4035 303.645 68.4035C303.951 68.4035 304.222 68.332 304.46 68.189C304.7 68.046 304.887 67.8496 305.023 67.6C305.161 67.3479 305.23 67.0631 305.23 66.7455C305.23 66.4207 305.159 66.1311 305.016 65.8766C304.875 65.6196 304.681 65.4172 304.434 65.2694C304.187 65.1215 303.904 65.0464 303.587 65.044C303.359 65.0415 303.125 65.0767 302.885 65.1494C302.645 65.2197 302.448 65.3106 302.293 65.4221L301.449 65.3203L301.9 61.6554H305.768V62.4553H302.656L302.394 64.6513H302.438C302.591 64.5301 302.782 64.4295 303.013 64.3495C303.243 64.2695 303.483 64.2295 303.732 64.2295C304.188 64.2295 304.594 64.3386 304.95 64.5568C305.309 64.7725 305.59 65.0682 305.794 65.4439C306 65.8196 306.103 66.2486 306.103 66.731C306.103 67.2061 305.996 67.6303 305.783 68.0035C305.572 68.3744 305.281 68.6677 304.91 68.8834C304.54 69.0967 304.118 69.2034 303.645 69.2034ZM311.343 67.7054V67.3127C311.343 67.0413 311.399 66.7928 311.51 66.5674C311.624 66.3395 311.789 66.1577 312.005 66.022C312.223 65.8838 312.487 65.8148 312.797 65.8148C313.113 65.8148 313.377 65.8838 313.59 66.022C313.803 66.1577 313.965 66.3395 314.074 66.5674C314.183 66.7928 314.237 67.0413 314.237 67.3127V67.7054C314.237 67.9769 314.181 68.2265 314.07 68.4544C313.961 68.6798 313.799 68.8616 313.583 68.9998C313.369 69.1355 313.108 69.2034 312.797 69.2034C312.482 69.2034 312.217 69.1355 312.001 68.9998C311.785 68.8616 311.622 68.6798 311.51 68.4544C311.399 68.2265 311.343 67.9769 311.343 67.7054ZM312.085 67.3127V67.7054C312.085 67.9308 312.138 68.1332 312.245 68.3126C312.351 68.4895 312.536 68.578 312.797 68.578C313.052 68.578 313.231 68.4895 313.336 68.3126C313.442 68.1332 313.496 67.9308 313.496 67.7054V67.3127C313.496 67.0873 313.445 66.8861 313.343 66.7092C313.241 66.5298 313.059 66.4401 312.797 66.4401C312.543 66.4401 312.36 66.5298 312.248 66.7092C312.139 66.8861 312.085 67.0873 312.085 67.3127ZM307.635 63.4442V63.0515C307.635 62.7801 307.69 62.5316 307.802 62.3062C307.916 62.0783 308.081 61.8965 308.296 61.7608C308.514 61.6226 308.779 61.5536 309.089 61.5536C309.404 61.5536 309.668 61.6226 309.882 61.7608C310.095 61.8965 310.256 62.0783 310.365 62.3062C310.474 62.5316 310.529 62.7801 310.529 63.0515V63.4442C310.529 63.7157 310.473 63.9653 310.361 64.1932C310.252 64.4186 310.09 64.6004 309.874 64.7386C309.661 64.8743 309.399 64.9422 309.089 64.9422C308.774 64.9422 308.508 64.8743 308.293 64.7386C308.077 64.6004 307.913 64.4186 307.802 64.1932C307.69 63.9653 307.635 63.7157 307.635 63.4442ZM308.376 63.0515V63.4442C308.376 63.6696 308.43 63.872 308.536 64.0514C308.643 64.2283 308.827 64.3168 309.089 64.3168C309.343 64.3168 309.523 64.2283 309.627 64.0514C309.734 63.872 309.787 63.6696 309.787 63.4442V63.0515C309.787 62.8261 309.736 62.6249 309.634 62.448C309.532 62.2686 309.351 62.1789 309.089 62.1789C308.834 62.1789 308.651 62.2686 308.54 62.448C308.431 62.6249 308.376 62.8261 308.376 63.0515ZM307.911 69.1016L313.03 61.6554H313.859L308.74 69.1016H307.911Z" fill="#666666"/>
<path d="M321.4 61.1953L324.471 64.2669H318.328L321.4 61.1953Z" fill="#1DD11D"/>
<path d="M87.7408 140.178C68.3789 140.178 51.1016 155.13 51.1016 155.13V244.43H327.539V121.163C327.539 121.163 318.555 110.653 304.348 107.249C278.74 101.114 275.166 145.9 252.671 145.9C236.147 145.9 235.006 117.916 212.974 115.365C190.942 112.815 181.004 177.077 145.487 176.353C118.881 175.81 102.703 140.178 87.7408 140.178Z" fill="url(#paint0_linear_3242_55929)"/>
<path d="M51.5625 154.938C51.5625 154.938 68.3791 140.122 87.741 140.122C103.855 140.122 118.881 175.695 145.487 176.237C181.004 176.96 190.942 112.804 212.974 115.351C235.006 117.897 236.147 145.835 252.671 145.835C275.166 145.835 278.74 101.124 304.348 107.248C318.555 110.646 327.539 121.138 327.539 121.138" stroke="#2C6DEA" stroke-width="2.30365" stroke-linecap="round"/>
<rect x="27.6719" y="24.4062" width="323.298" height="242.736" rx="16.9352" stroke="#E9E9E9" stroke-width="10" shape-rendering="crispEdges"/>
</g>
<rect x="310.133" y="5.85938" width="51.1926" height="51.1926" rx="25.5963" fill="#EEF4FF"/>
<g clip-path="url(#clip0_3242_55929)">
<path d="M335.729 18.6562L345.289 20.7807C345.821 20.8994 346.2 21.3706 346.2 21.9163V33.5358C346.2 35.8697 345.033 38.0501 343.091 39.3439L335.729 44.2525L328.367 39.3439C326.424 38.0489 325.258 35.8697 325.258 33.537V21.9163C325.258 21.3706 325.637 20.8994 326.169 20.7807L335.729 18.6562ZM340.909 27.0588L335.15 32.8168L331.859 29.5265L330.214 31.1717L335.151 36.1083L342.555 28.704L340.909 27.0588Z" fill="#2C6DEA"/>
</g>
<defs>
<filter id="filter0_d_3242_55929" x="0.147146" y="0.976926" width="378.346" height="297.784" filterUnits="userSpaceOnUse" color-interpolation-filters="sRGB">
<feFlood flood-opacity="0" result="BackgroundImageFix"/>
<feColorMatrix in="SourceAlpha" type="matrix" values="0 0 0 0 0 0 0 0 0 0 0 0 0 0 0 0 0 0 127 0" result="hardAlpha"/>
<feOffset dy="4.09541"/>
<feGaussianBlur stdDeviation="11.2624"/>
<feComposite in2="hardAlpha" operator="out"/>
<feColorMatrix type="matrix" values="0 0 0 0 0.570833 0 0 0 0 0.570833 0 0 0 0 0.570833 0 0 0 0.11 0"/>
<feBlend mode="normal" in2="BackgroundImageFix" result="effect1_dropShadow_3242_55929"/>
<feBlend mode="normal" in="SourceGraphic" in2="effect1_dropShadow_3242_55929" result="shape"/>
</filter>
<linearGradient id="paint0_linear_3242_55929" x1="189.751" y1="31.0482" x2="189.32" y2="244.43" gradientUnits="userSpaceOnUse">
<stop stop-color="#5E93F9" stop-opacity="0.3"/>
<stop offset="1" stop-color="#2C6DEA" stop-opacity="0"/>
</linearGradient>
<clipPath id="clip0_3242_55929">
<rect width="27.9232" height="27.9232" fill="white" transform="translate(321.766 17.4922)"/>
</clipPath>
</defs>
</svg>
