<svg width="334" height="320" viewBox="0 0 334 320" fill="none" xmlns="http://www.w3.org/2000/svg">
<g clip-path="url(#clip0_3242_54990)">
<g filter="url(#filter0_d_3242_54990)">
<g clip-path="url(#clip1_3242_54990)">
<rect x="0.65625" width="332.694" height="289.322" rx="5" fill="white"/>
<path d="M0.65625 1.58678C0.65625 0.710426 1.36667 0 2.24303 0H331.764C332.64 0 333.35 0.710424 333.35 1.58678V33.8512H0.65625V1.58678Z" fill="white"/>
<path d="M150.676 22.5703V16.4155H152.87C153.349 16.4155 153.746 16.5027 154.06 16.677C154.375 16.8513 154.61 17.0897 154.766 17.3923C154.923 17.6928 155.001 18.0314 155.001 18.408C155.001 18.7867 154.922 19.1273 154.763 19.4298C154.607 19.7303 154.371 19.9688 154.054 20.1451C153.74 20.3194 153.344 20.4065 152.867 20.4065H151.358V19.6191H152.783C153.085 19.6191 153.331 19.5671 153.519 19.4629C153.707 19.3567 153.846 19.2124 153.934 19.0301C154.022 18.8478 154.066 18.6404 154.066 18.408C154.066 18.1756 154.022 17.9693 153.934 17.7889C153.846 17.6086 153.706 17.4674 153.516 17.3652C153.328 17.263 153.079 17.2119 152.771 17.2119H151.605V22.5703H150.676ZM157.319 22.6725C157.027 22.6725 156.762 22.6184 156.526 22.5102C156.29 22.4 156.102 22.2407 155.964 22.0324C155.828 21.824 155.76 21.5686 155.76 21.266C155.76 21.0056 155.81 20.7912 155.91 20.6229C156.01 20.4546 156.145 20.3214 156.316 20.2232C156.486 20.125 156.676 20.0509 156.887 20.0008C157.097 19.9507 157.311 19.9127 157.53 19.8866C157.806 19.8546 158.031 19.8285 158.203 19.8085C158.375 19.7864 158.5 19.7514 158.579 19.7033C158.657 19.6552 158.696 19.5771 158.696 19.4689V19.4478C158.696 19.1854 158.622 18.982 158.473 18.8378C158.327 18.6935 158.109 18.6214 157.818 18.6214C157.516 18.6214 157.277 18.6885 157.103 18.8228C156.931 18.955 156.811 19.1022 156.745 19.2645L155.901 19.0722C156.001 18.7917 156.147 18.5653 156.34 18.393C156.534 18.2187 156.757 18.0925 157.01 18.0143C157.262 17.9342 157.528 17.8941 157.806 17.8941C157.99 17.8941 158.186 17.9162 158.392 17.9602C158.601 18.0023 158.795 18.0805 158.975 18.1947C159.158 18.3089 159.307 18.4721 159.423 18.6845C159.539 18.8949 159.597 19.1684 159.597 19.5049V22.5703H158.72V21.9392H158.684C158.626 22.0554 158.538 22.1696 158.422 22.2818C158.306 22.394 158.157 22.4872 157.974 22.5613C157.792 22.6354 157.574 22.6725 157.319 22.6725ZM157.515 21.9512C157.763 21.9512 157.975 21.9021 158.152 21.804C158.33 21.7058 158.465 21.5776 158.557 21.4193C158.652 21.259 158.699 21.0877 158.699 20.9054V20.3104C158.667 20.3424 158.605 20.3725 158.512 20.4005C158.422 20.4266 158.319 20.4496 158.203 20.4696C158.087 20.4877 157.973 20.5047 157.863 20.5207C157.753 20.5348 157.661 20.5468 157.587 20.5568C157.412 20.5788 157.253 20.6159 157.109 20.668C156.967 20.7201 156.852 20.7952 156.766 20.8934C156.682 20.9895 156.64 21.1178 156.64 21.2781C156.64 21.5004 156.722 21.6687 156.887 21.7829C157.051 21.8951 157.26 21.9512 157.515 21.9512ZM161.197 24.3013C161.063 24.3013 160.94 24.2903 160.83 24.2683C160.72 24.2482 160.638 24.2262 160.584 24.2022L160.8 23.4659C160.964 23.51 161.111 23.529 161.239 23.523C161.367 23.517 161.48 23.4689 161.579 23.3787C161.679 23.2886 161.767 23.1413 161.843 22.937L161.954 22.6304L160.265 17.9542H161.227L162.396 21.5365H162.444L163.613 17.9542H164.578L162.675 23.1864C162.587 23.4268 162.475 23.6302 162.339 23.7965C162.203 23.9648 162.04 24.091 161.852 24.1751C161.664 24.2593 161.445 24.3013 161.197 24.3013ZM167.734 22.5703V16.4155H169.988C170.425 16.4155 170.786 16.4877 171.073 16.6319C171.359 16.7742 171.574 16.9675 171.716 17.2119C171.858 17.4544 171.929 17.7278 171.929 18.0324C171.929 18.2888 171.882 18.5052 171.788 18.6815C171.694 18.8558 171.568 18.9961 171.409 19.1022C171.253 19.2064 171.081 19.2826 170.893 19.3306V19.3907C171.097 19.4008 171.296 19.4669 171.491 19.5891C171.687 19.7093 171.849 19.8806 171.977 20.103C172.106 20.3254 172.17 20.5959 172.17 20.9144C172.17 21.229 172.096 21.5115 171.947 21.7619C171.801 22.0103 171.575 22.2077 171.268 22.3539C170.962 22.4982 170.57 22.5703 170.093 22.5703H167.734ZM168.663 21.7739H170.003C170.448 21.7739 170.766 21.6878 170.959 21.5155C171.151 21.3432 171.247 21.1278 171.247 20.8693C171.247 20.675 171.198 20.4967 171.1 20.3344C171.002 20.1721 170.862 20.0429 170.679 19.9467C170.499 19.8506 170.284 19.8025 170.036 19.8025H168.663V21.7739ZM168.663 19.0782H169.907C170.115 19.0782 170.303 19.0381 170.469 18.958C170.637 18.8779 170.77 18.7657 170.869 18.6214C170.969 18.4751 171.019 18.3028 171.019 18.1045C171.019 17.8501 170.93 17.6367 170.751 17.4644C170.573 17.2921 170.3 17.2059 169.931 17.2059H168.663V19.0782ZM173.199 22.5703V17.9542H174.098V22.5703H173.199ZM173.653 17.242C173.497 17.242 173.362 17.1899 173.25 17.0857C173.14 16.9795 173.085 16.8533 173.085 16.7071C173.085 16.5588 173.14 16.4326 173.25 16.3284C173.362 16.2222 173.497 16.1691 173.653 16.1691C173.809 16.1691 173.942 16.2222 174.053 16.3284C174.165 16.4326 174.221 16.5588 174.221 16.7071C174.221 16.8533 174.165 16.9795 174.053 17.0857C173.942 17.1899 173.809 17.242 173.653 17.242ZM176.205 16.4155V22.5703H175.307V16.4155H176.205ZM178.313 16.4155V22.5703H177.414V16.4155H178.313ZM182.98 19.0812L182.166 19.2255C182.132 19.1213 182.078 19.0221 182.004 18.9279C181.932 18.8338 181.833 18.7566 181.709 18.6965C181.585 18.6364 181.43 18.6064 181.243 18.6064C180.989 18.6064 180.777 18.6635 180.606 18.7777C180.436 18.8899 180.351 19.0351 180.351 19.2134C180.351 19.3677 180.408 19.4919 180.522 19.5861C180.636 19.6803 180.821 19.7574 181.075 19.8175L181.808 19.9858C182.233 20.084 182.55 20.2352 182.758 20.4396C182.966 20.6439 183.071 20.9094 183.071 21.236C183.071 21.5125 182.99 21.7589 182.83 21.9753C182.672 22.1896 182.451 22.3579 182.166 22.4802C181.884 22.6024 181.556 22.6635 181.183 22.6635C180.666 22.6635 180.245 22.5533 179.918 22.3329C179.592 22.1105 179.391 21.795 179.317 21.3862L180.186 21.254C180.24 21.4804 180.351 21.6517 180.519 21.7679C180.687 21.8821 180.907 21.9392 181.177 21.9392C181.472 21.9392 181.707 21.8781 181.884 21.7559C182.06 21.6317 182.148 21.4804 182.148 21.3021C182.148 21.1578 182.094 21.0366 181.986 20.9385C181.88 20.8403 181.716 20.7662 181.496 20.7161L180.714 20.5448C180.284 20.4466 179.965 20.2903 179.759 20.0759C179.554 19.8616 179.452 19.5901 179.452 19.2615C179.452 18.989 179.528 18.7506 179.681 18.5463C179.833 18.3419 180.043 18.1826 180.312 18.0684C180.58 17.9522 180.888 17.8941 181.234 17.8941C181.733 17.8941 182.126 18.0023 182.412 18.2187C182.699 18.4331 182.888 18.7206 182.98 19.0812Z" fill="#303030"/>
<line x1="0.65625" y1="33.7193" x2="333.35" y2="33.7193" stroke="#9CA3AF" stroke-width="0.264463"/>
<rect width="332.694" height="239.603" transform="translate(0.65625 33.8516)" fill="white"/>
<g clip-path="url(#clip2_3242_54990)">
<path d="M51.2826 70.7684C51.2586 70.555 51.1594 70.3898 50.9851 70.2726C50.8108 70.1538 50.5914 70.0945 50.3269 70.0945C50.1376 70.0945 49.9738 70.1245 49.8356 70.1846C49.6973 70.2433 49.5899 70.3244 49.5133 70.4281C49.4381 70.5303 49.4006 70.6467 49.4006 70.7774C49.4006 70.8871 49.4261 70.9818 49.4772 71.0614C49.5298 71.1411 49.5982 71.2079 49.6823 71.262C49.768 71.3146 49.8596 71.359 49.9573 71.395C50.055 71.4296 50.1489 71.4581 50.239 71.4807L50.6898 71.5979C50.8371 71.6339 50.9881 71.6828 51.1429 71.7444C51.2976 71.806 51.4411 71.8871 51.5734 71.9878C51.7056 72.0885 51.8123 72.2132 51.8934 72.362C51.9761 72.5107 52.0174 72.6888 52.0174 72.8961C52.0174 73.1576 51.9498 73.3898 51.8145 73.5926C51.6808 73.7955 51.4862 73.9555 51.2308 74.0727C50.9768 74.1899 50.6695 74.2485 50.3089 74.2485C49.9633 74.2485 49.6643 74.1937 49.4118 74.084C49.1594 73.9743 48.9618 73.8188 48.819 73.6174C48.6763 73.4145 48.5974 73.1741 48.5824 72.8961H49.2811C49.2946 73.0629 49.3487 73.2019 49.4434 73.3131C49.5396 73.4228 49.662 73.5047 49.8108 73.5588C49.961 73.6114 50.1256 73.6377 50.3044 73.6377C50.5012 73.6377 50.6763 73.6069 50.8296 73.5453C50.9843 73.4822 51.106 73.395 51.1947 73.2838C51.2834 73.1711 51.3277 73.0396 51.3277 72.8894C51.3277 72.7526 51.2886 72.6407 51.2105 72.5535C51.1338 72.4664 51.0294 72.3943 50.8972 72.3372C50.7665 72.2801 50.6184 72.2297 50.4532 72.1862L49.9077 72.0374C49.5381 71.9367 49.245 71.7887 49.0287 71.5934C48.8138 71.398 48.7063 71.1396 48.7063 70.818C48.7063 70.552 48.7785 70.3199 48.9227 70.1215C49.067 69.9232 49.2623 69.7692 49.5088 69.6595C49.7552 69.5483 50.0332 69.4927 50.3427 69.4927C50.6553 69.4927 50.931 69.5475 51.1699 69.6572C51.4103 69.7669 51.5997 69.9179 51.7379 70.1103C51.8761 70.3011 51.9483 70.5205 51.9543 70.7684H51.2826ZM54.2877 74.2417C53.9466 74.2417 53.6528 74.1689 53.4064 74.0231C53.1615 73.8759 52.9721 73.6692 52.8384 73.4033C52.7062 73.1358 52.64 72.8225 52.64 72.4634C52.64 72.1088 52.7062 71.7962 52.8384 71.5257C52.9721 71.2553 53.1585 71.0442 53.3974 70.8924C53.6378 70.7406 53.9188 70.6647 54.2403 70.6647C54.4357 70.6647 54.625 70.697 54.8083 70.7617C54.9917 70.8263 55.1562 70.9277 55.302 71.0659C55.4477 71.2042 55.5627 71.3837 55.6468 71.6046C55.731 71.824 55.773 72.0907 55.773 72.4048V72.6437H53.021V72.1388H55.1126C55.1126 71.9615 55.0766 71.8045 55.0044 71.6677C54.9323 71.5295 54.8309 71.4206 54.7001 71.3409C54.5709 71.2613 54.4192 71.2215 54.2449 71.2215C54.0555 71.2215 53.8902 71.268 53.749 71.3612C53.6092 71.4529 53.5011 71.5731 53.4244 71.7218C53.3493 71.8691 53.3117 72.0291 53.3117 72.2019V72.5964C53.3117 72.8278 53.3523 73.0246 53.4334 73.1869C53.5161 73.3492 53.631 73.4732 53.7783 73.5588C53.9255 73.6429 54.0976 73.685 54.2944 73.685C54.4222 73.685 54.5386 73.667 54.6438 73.6309C54.749 73.5934 54.8399 73.5378 54.9165 73.4641C54.9932 73.3905 55.0518 73.2996 55.0923 73.1914L55.7302 73.3064C55.6791 73.4942 55.5875 73.6587 55.4552 73.8C55.3245 73.9397 55.16 74.0487 54.9616 74.1268C54.7648 74.2034 54.5401 74.2417 54.2877 74.2417ZM57.1947 69.5558V74.1719H56.5208V69.5558H57.1947ZM59.5935 74.2417C59.2524 74.2417 58.9586 74.1689 58.7122 74.0231C58.4672 73.8759 58.2779 73.6692 58.1442 73.4033C58.0119 73.1358 57.9458 72.8225 57.9458 72.4634C57.9458 72.1088 58.0119 71.7962 58.1442 71.5257C58.2779 71.2553 58.4642 71.0442 58.7032 70.8924C58.9436 70.7406 59.2246 70.6647 59.5461 70.6647C59.7415 70.6647 59.9308 70.697 60.1141 70.7617C60.2974 70.8263 60.462 70.9277 60.6077 71.0659C60.7535 71.2042 60.8684 71.3837 60.9526 71.6046C61.0367 71.824 61.0788 72.0907 61.0788 72.4048V72.6437H58.3267V72.1388H60.4184C60.4184 71.9615 60.3823 71.8045 60.3102 71.6677C60.2381 71.5295 60.1367 71.4206 60.0059 71.3409C59.8767 71.2613 59.7249 71.2215 59.5506 71.2215C59.3613 71.2215 59.196 71.268 59.0548 71.3612C58.915 71.4529 58.8068 71.5731 58.7302 71.7218C58.6551 71.8691 58.6175 72.0291 58.6175 72.2019V72.5964C58.6175 72.8278 58.6581 73.0246 58.7392 73.1869C58.8219 73.3492 58.9368 73.4732 59.0841 73.5588C59.2313 73.6429 59.4034 73.685 59.6002 73.685C59.7279 73.685 59.8444 73.667 59.9496 73.6309C60.0548 73.5934 60.1457 73.5378 60.2223 73.4641C60.2989 73.3905 60.3575 73.2996 60.3981 73.1914L61.036 73.3064C60.9849 73.4942 60.8932 73.6587 60.761 73.8C60.6303 73.9397 60.4657 74.0487 60.2674 74.1268C60.0705 74.2034 59.8459 74.2417 59.5935 74.2417ZM63.2849 74.2417C62.9498 74.2417 62.6613 74.1659 62.4193 74.0141C62.1789 73.8608 61.9941 73.6497 61.8649 73.3807C61.7356 73.1118 61.671 72.8037 61.671 72.4566C61.671 72.105 61.7372 71.7947 61.8694 71.5257C62.0016 71.2553 62.1879 71.0442 62.4284 70.8924C62.6688 70.7406 62.952 70.6647 63.2781 70.6647C63.5411 70.6647 63.7755 70.7136 63.9813 70.8112C64.1872 70.9074 64.3532 71.0426 64.4794 71.217C64.6072 71.3913 64.6831 71.5949 64.7071 71.8278H64.0512C64.0151 71.6655 63.9325 71.5257 63.8033 71.4085C63.6755 71.2913 63.5042 71.2327 63.2894 71.2327C63.1015 71.2327 62.937 71.2823 62.7958 71.3815C62.656 71.4792 62.5471 71.6189 62.4689 71.8007C62.3908 71.981 62.3517 72.1944 62.3517 72.4408C62.3517 72.6933 62.39 72.9112 62.4667 73.0945C62.5433 73.2778 62.6515 73.4198 62.7912 73.5205C62.9325 73.6212 63.0985 73.6715 63.2894 73.6715C63.4171 73.6715 63.5328 73.6482 63.6365 73.6016C63.7417 73.5535 63.8296 73.4852 63.9002 73.3965C63.9723 73.3079 64.0226 73.2012 64.0512 73.0765H64.7071C64.6831 73.3003 64.6102 73.5002 64.4885 73.676C64.3668 73.8518 64.2037 73.9901 63.9994 74.0907C63.7965 74.1914 63.5583 74.2417 63.2849 74.2417ZM67.0439 70.7098V71.2508H65.1528V70.7098H67.0439ZM65.66 69.8804H66.3339V73.1553C66.3339 73.2861 66.3534 73.3845 66.3925 73.4506C66.4316 73.5152 66.4819 73.5596 66.5435 73.5836C66.6066 73.6061 66.675 73.6174 66.7486 73.6174C66.8027 73.6174 66.85 73.6136 66.8906 73.6061C66.9312 73.5986 66.9627 73.5926 66.9853 73.5881L67.107 74.1448C67.0679 74.1599 67.0123 74.1749 66.9402 74.1899C66.8681 74.2064 66.7779 74.2155 66.6697 74.217C66.4924 74.22 66.3271 74.1884 66.1739 74.1223C66.0206 74.0562 65.8966 73.954 65.802 73.8158C65.7073 73.6775 65.66 73.504 65.66 73.2951V69.8804ZM70.9274 74.2417C70.5923 74.2417 70.3038 74.1659 70.0619 74.0141C69.8215 73.8608 69.6367 73.6497 69.5074 73.3807C69.3782 73.1118 69.3136 72.8037 69.3136 72.4566C69.3136 72.105 69.3797 71.7947 69.5119 71.5257C69.6442 71.2553 69.8305 71.0442 70.0709 70.8924C70.3113 70.7406 70.5946 70.6647 70.9207 70.6647C71.1836 70.6647 71.418 70.7136 71.6239 70.8112C71.8297 70.9074 71.9958 71.0426 72.122 71.217C72.2497 71.3913 72.3256 71.5949 72.3497 71.8278H71.6938C71.6577 71.6655 71.5751 71.5257 71.4458 71.4085C71.3181 71.2913 71.1468 71.2327 70.9319 71.2327C70.7441 71.2327 70.5796 71.2823 70.4383 71.3815C70.2986 71.4792 70.1896 71.6189 70.1115 71.8007C70.0334 71.981 69.9943 72.1944 69.9943 72.4408C69.9943 72.6933 70.0326 72.9112 70.1092 73.0945C70.1859 73.2778 70.2941 73.4198 70.4338 73.5205C70.5751 73.6212 70.7411 73.6715 70.9319 73.6715C71.0597 73.6715 71.1754 73.6482 71.279 73.6016C71.3842 73.5535 71.4721 73.4852 71.5427 73.3965C71.6149 73.3079 71.6652 73.2012 71.6938 73.0765H72.3497C72.3256 73.3003 72.2527 73.5002 72.131 73.676C72.0093 73.8518 71.8463 73.9901 71.6419 74.0907C71.4391 74.1914 71.2009 74.2417 70.9274 74.2417ZM74.0779 74.2485C73.8585 74.2485 73.6601 74.2079 73.4828 74.1268C73.3055 74.0442 73.165 73.9247 73.0613 73.7684C72.9592 73.6121 72.9081 73.4206 72.9081 73.1937C72.9081 72.9983 72.9456 72.8375 73.0208 72.7113C73.0959 72.5851 73.1973 72.4852 73.3251 72.4115C73.4528 72.3379 73.5955 72.2823 73.7533 72.2448C73.9111 72.2072 74.0719 72.1786 74.2356 72.1591C74.443 72.1351 74.6113 72.1155 74.7405 72.1005C74.8698 72.084 74.9637 72.0577 75.0223 72.0216C75.0809 71.9855 75.1102 71.9269 75.1102 71.8458V71.83C75.1102 71.6332 75.0546 71.4807 74.9434 71.3725C74.8337 71.2643 74.6699 71.2102 74.452 71.2102C74.2251 71.2102 74.0463 71.2605 73.9156 71.3612C73.7864 71.4604 73.697 71.5708 73.6474 71.6925L73.014 71.5483C73.0891 71.3379 73.1988 71.1681 73.3431 71.0389C73.4888 70.9082 73.6564 70.8135 73.8457 70.7549C74.035 70.6948 74.2341 70.6647 74.443 70.6647C74.5813 70.6647 74.7278 70.6813 74.8825 70.7143C75.0388 70.7459 75.1846 70.8045 75.3198 70.8901C75.4565 70.9758 75.5685 71.0982 75.6556 71.2575C75.7428 71.4153 75.7864 71.6204 75.7864 71.8729V74.1719H75.1282V73.6985H75.1012C75.0576 73.7857 74.9922 73.8713 74.9051 73.9555C74.8179 74.0396 74.706 74.1095 74.5692 74.1651C74.4325 74.2207 74.2687 74.2485 74.0779 74.2485ZM74.2244 73.7076C74.4107 73.7076 74.57 73.6707 74.7022 73.5971C74.8359 73.5235 74.9374 73.4273 75.0065 73.3086C75.0771 73.1884 75.1124 73.0599 75.1124 72.9232V72.4769C75.0884 72.501 75.0418 72.5235 74.9727 72.5445C74.9051 72.5641 74.8277 72.5813 74.7405 72.5964C74.6534 72.6099 74.5685 72.6227 74.4858 72.6347C74.4032 72.6452 74.3341 72.6542 74.2785 72.6617C74.1477 72.6783 74.0283 72.7061 73.9201 72.7451C73.8134 72.7842 73.7278 72.8405 73.6631 72.9142C73.6 72.9863 73.5685 73.0825 73.5685 73.2027C73.5685 73.3695 73.6301 73.4957 73.7533 73.5813C73.8765 73.6655 74.0335 73.7076 74.2244 73.7076ZM78.3001 70.7098V71.2508H76.409V70.7098H78.3001ZM76.9162 69.8804H77.5901V73.1553C77.5901 73.2861 77.6096 73.3845 77.6487 73.4506C77.6878 73.5152 77.7381 73.5596 77.7997 73.5836C77.8628 73.6061 77.9312 73.6174 78.0048 73.6174C78.0589 73.6174 78.1062 73.6136 78.1468 73.6061C78.1874 73.5986 78.2189 73.5926 78.2415 73.5881L78.3632 74.1448C78.3241 74.1599 78.2685 74.1749 78.1964 74.1899C78.1243 74.2064 78.0341 74.2155 77.9259 74.217C77.7486 74.22 77.5833 74.1884 77.43 74.1223C77.2768 74.0562 77.1528 73.954 77.0581 73.8158C76.9635 73.6775 76.9162 73.504 76.9162 73.2951V69.8804ZM80.5005 74.2417C80.1594 74.2417 79.8656 74.1689 79.6192 74.0231C79.3743 73.8759 79.1849 73.6692 79.0512 73.4033C78.919 73.1358 78.8529 72.8225 78.8529 72.4634C78.8529 72.1088 78.919 71.7962 79.0512 71.5257C79.1849 71.2553 79.3713 71.0442 79.6102 70.8924C79.8506 70.7406 80.1316 70.6647 80.4532 70.6647C80.6485 70.6647 80.8378 70.697 81.0211 70.7617C81.2045 70.8263 81.369 70.9277 81.5148 71.0659C81.6605 71.2042 81.7755 71.3837 81.8596 71.6046C81.9438 71.824 81.9858 72.0907 81.9858 72.4048V72.6437H79.2338V72.1388H81.3254C81.3254 71.9615 81.2894 71.8045 81.2172 71.6677C81.1451 71.5295 81.0437 71.4206 80.913 71.3409C80.7837 71.2613 80.632 71.2215 80.4577 71.2215C80.2683 71.2215 80.103 71.268 79.9618 71.3612C79.822 71.4529 79.7139 71.5731 79.6372 71.7218C79.5621 71.8691 79.5245 72.0291 79.5245 72.2019V72.5964C79.5245 72.8278 79.5651 73.0246 79.6462 73.1869C79.7289 73.3492 79.8438 73.4732 79.9911 73.5588C80.1384 73.6429 80.3104 73.685 80.5072 73.685C80.635 73.685 80.7514 73.667 80.8566 73.6309C80.9618 73.5934 81.0527 73.5378 81.1293 73.4641C81.206 73.3905 81.2646 73.2996 81.3051 73.1914L81.943 73.3064C81.8919 73.4942 81.8003 73.6587 81.668 73.8C81.5373 73.9397 81.3728 74.0487 81.1744 74.1268C80.9776 74.2034 80.7529 74.2417 80.5005 74.2417ZM84.1851 75.5423C83.9101 75.5423 83.6735 75.5062 83.4751 75.4341C83.2783 75.362 83.1175 75.2665 82.9928 75.1478C82.8681 75.0291 82.7749 74.8991 82.7133 74.7579L83.2926 74.519C83.3331 74.5851 83.3872 74.655 83.4548 74.7286C83.524 74.8037 83.6171 74.8676 83.7343 74.9202C83.853 74.9728 84.0056 74.9991 84.1919 74.9991C84.4473 74.9991 84.6584 74.9367 84.8252 74.812C84.992 74.6888 85.0754 74.4919 85.0754 74.2215V73.5408H85.0326C84.992 73.6144 84.9334 73.6963 84.8568 73.7865C84.7817 73.8766 84.678 73.9547 84.5458 74.0209C84.4135 74.087 84.2415 74.12 84.0296 74.12C83.7561 74.12 83.5097 74.0562 83.2903 73.9284C83.0724 73.7992 82.8996 73.6091 82.7719 73.3582C82.6457 73.1058 82.5826 72.7955 82.5826 72.4273C82.5826 72.0592 82.6449 71.7436 82.7696 71.4807C82.8959 71.2177 83.0687 71.0164 83.288 70.8766C83.5074 70.7354 83.7561 70.6647 84.0341 70.6647C84.249 70.6647 84.4225 70.7008 84.5548 70.7729C84.687 70.8436 84.7899 70.9262 84.8636 71.0209C84.9387 71.1155 84.9965 71.1989 85.0371 71.271H85.0867V70.7098H85.7471V74.2485C85.7471 74.546 85.678 74.7902 85.5397 74.981C85.4015 75.1719 85.2144 75.3131 84.9785 75.4048C84.7441 75.4964 84.4796 75.5423 84.1851 75.5423ZM84.1784 73.5611C84.3722 73.5611 84.536 73.516 84.6697 73.4258C84.805 73.3342 84.9071 73.2034 84.9763 73.0336C85.0469 72.8623 85.0822 72.6572 85.0822 72.4183C85.0822 72.1854 85.0476 71.9803 84.9785 71.803C84.9094 71.6257 84.808 71.4874 84.6742 71.3883C84.5405 71.2876 84.3752 71.2372 84.1784 71.2372C83.9755 71.2372 83.8065 71.2898 83.6712 71.395C83.536 71.4987 83.4338 71.6399 83.3647 71.8188C83.2971 71.9976 83.2633 72.1974 83.2633 72.4183C83.2633 72.6452 83.2978 72.8443 83.3669 73.0156C83.4361 73.1869 83.5382 73.3206 83.6735 73.4168C83.8102 73.513 83.9785 73.5611 84.1784 73.5611ZM88.1092 74.2417C87.7847 74.2417 87.5014 74.1674 87.2595 74.0186C87.0176 73.8698 86.8297 73.6617 86.696 73.3943C86.5623 73.1268 86.4954 72.8142 86.4954 72.4566C86.4954 72.0975 86.5623 71.7834 86.696 71.5145C86.8297 71.2455 87.0176 71.0366 87.2595 70.8879C87.5014 70.7391 87.7847 70.6647 88.1092 70.6647C88.4338 70.6647 88.717 70.7391 88.959 70.8879C89.2009 71.0366 89.3887 71.2455 89.5225 71.5145C89.6562 71.7834 89.7231 72.0975 89.7231 72.4566C89.7231 72.8142 89.6562 73.1268 89.5225 73.3943C89.3887 73.6617 89.2009 73.8698 88.959 74.0186C88.717 74.1674 88.4338 74.2417 88.1092 74.2417ZM88.1115 73.676C88.3219 73.676 88.4962 73.6204 88.6344 73.5092C88.7726 73.398 88.8748 73.25 88.9409 73.0652C89.0086 72.8804 89.0424 72.6768 89.0424 72.4544C89.0424 72.2335 89.0086 72.0306 88.9409 71.8458C88.8748 71.6595 88.7726 71.51 88.6344 71.3973C88.4962 71.2846 88.3219 71.2282 88.1115 71.2282C87.8996 71.2282 87.7238 71.2846 87.5841 71.3973C87.4458 71.51 87.3429 71.6595 87.2753 71.8458C87.2092 72.0306 87.1761 72.2335 87.1761 72.4544C87.1761 72.6768 87.2092 72.8804 87.2753 73.0652C87.3429 73.25 87.4458 73.398 87.5841 73.5092C87.7238 73.6204 87.8996 73.676 88.1115 73.676ZM90.4753 74.1719V70.7098H91.1267V71.2598H91.1628C91.2259 71.0735 91.3371 70.9269 91.4964 70.8203C91.6571 70.7121 91.839 70.658 92.0418 70.658C92.0839 70.658 92.1335 70.6595 92.1906 70.6625C92.2492 70.6655 92.295 70.6692 92.3281 70.6738V71.3184C92.301 71.3109 92.2529 71.3026 92.1838 71.2936C92.1147 71.2831 92.0456 71.2778 91.9764 71.2778C91.8172 71.2778 91.6752 71.3116 91.5504 71.3792C91.4272 71.4454 91.3296 71.5378 91.2574 71.6565C91.1853 71.7737 91.1492 71.9074 91.1492 72.0577V74.1719H90.4753ZM93.4426 75.4701C93.342 75.4701 93.2503 75.4619 93.1677 75.4454C93.085 75.4303 93.0234 75.4138 92.9828 75.3958L93.1451 74.8436C93.2683 74.8766 93.378 74.8909 93.4742 74.8864C93.5704 74.8819 93.6553 74.8458 93.7289 74.7782C93.804 74.7106 93.8701 74.6001 93.9272 74.4469L94.0106 74.217L92.7439 70.7098H93.4652L94.342 73.3965H94.378L95.2548 70.7098H95.9783L94.5516 74.6339C94.4855 74.8142 94.4013 74.9668 94.2991 75.0915C94.197 75.2177 94.0752 75.3124 93.934 75.3755C93.7927 75.4386 93.629 75.4701 93.4426 75.4701Z" fill="#303030"/>
</g>
<rect x="48.5223" y="80.1317" width="236.959" height="20.6281" rx="0.264463" fill="white"/>
<g clip-path="url(#clip3_3242_54990)">
<path d="M54.199 92.9453V87.5599H57.4492V88.1384H54.8512V89.9581H57.2809V90.5366H54.8512V92.3668H57.4913V92.9453H54.199ZM59.1611 87.5599V92.9453H58.5405V87.5599H59.1611ZM61.9912 93.0295C61.602 93.0295 61.2663 92.9436 60.984 92.7718C60.7036 92.5982 60.4871 92.3563 60.3345 92.046C60.1838 91.7339 60.1084 91.3711 60.1084 90.9573C60.1084 90.5436 60.1838 90.179 60.3345 89.8634C60.4871 89.5461 60.6992 89.2989 60.9709 89.1219C61.2444 88.9431 61.5634 88.8537 61.9281 88.8537C62.1384 88.8537 62.3462 88.8887 62.5513 88.9588C62.7564 89.029 62.9431 89.1429 63.1114 89.3007C63.2797 89.4567 63.4138 89.6636 63.5137 89.9213C63.6136 90.179 63.6636 90.4963 63.6636 90.8732V91.1361H60.5502V90.5997H63.0325C63.0325 90.3718 62.9869 90.1685 62.8958 89.9896C62.8064 89.8108 62.6784 89.6697 62.5118 89.5663C62.3471 89.4628 62.1525 89.4111 61.9281 89.4111C61.6809 89.4111 61.467 89.4725 61.2865 89.5952C61.1076 89.7162 60.97 89.8739 60.8736 90.0685C60.7772 90.2631 60.729 90.4717 60.729 90.6944V91.052C60.729 91.357 60.7816 91.6156 60.8868 91.8277C60.9937 92.0381 61.1418 92.1985 61.3312 92.3089C61.5205 92.4176 61.7405 92.472 61.9912 92.472C62.1542 92.472 62.3015 92.4492 62.433 92.4036C62.5662 92.3563 62.681 92.2862 62.7774 92.1932C62.8739 92.0986 62.9484 91.9811 63.001 91.8409L63.6005 92.0092C63.5374 92.2125 63.4313 92.3913 63.2823 92.5456C63.1333 92.6981 62.9492 92.8173 62.7301 92.9032C62.511 92.9874 62.2647 93.0295 61.9912 93.0295ZM66.2485 93.0295C65.8698 93.0295 65.5438 92.9401 65.2703 92.7612C64.9968 92.5824 64.7865 92.3361 64.6392 92.0223C64.4919 91.7085 64.4183 91.35 64.4183 90.9468C64.4183 90.5366 64.4937 90.1746 64.6445 89.8608C64.797 89.5452 65.0091 89.2989 65.2808 89.1219C65.5543 88.9431 65.8734 88.8537 66.238 88.8537C66.522 88.8537 66.7779 88.9062 67.0058 89.0114C67.2337 89.1166 67.4204 89.2639 67.5659 89.4532C67.7114 89.6425 67.8017 89.8634 67.8368 90.1159H67.2162C67.1689 89.9318 67.0637 89.7688 66.9007 89.6268C66.7394 89.483 66.522 89.4111 66.2485 89.4111C66.0066 89.4111 65.7945 89.4742 65.6121 89.6005C65.4316 89.7249 65.2905 89.9011 65.1888 90.129C65.0889 90.3552 65.0389 90.6207 65.0389 90.9258C65.0389 91.2378 65.088 91.5095 65.1861 91.741C65.2861 91.9724 65.4263 92.152 65.6069 92.28C65.7892 92.408 66.0031 92.472 66.2485 92.472C66.4098 92.472 66.5562 92.4439 66.6877 92.3878C66.8191 92.3317 66.9305 92.2511 67.0216 92.1459C67.1128 92.0407 67.1776 91.9145 67.2162 91.7673H67.8368C67.8017 92.0057 67.7149 92.2204 67.5765 92.4115C67.4397 92.6008 67.2583 92.7516 67.0321 92.8638C66.8077 92.9742 66.5465 93.0295 66.2485 93.0295ZM70.5006 88.9062V89.4322H68.4074V88.9062H70.5006ZM69.0175 87.9386H69.6381V91.7883C69.6381 91.9636 69.6635 92.0951 69.7143 92.1827C69.7669 92.2686 69.8335 92.3265 69.9142 92.3563C69.9966 92.3843 70.0833 92.3984 70.1745 92.3984C70.2429 92.3984 70.299 92.3948 70.3428 92.3878C70.3866 92.3791 70.4217 92.3721 70.448 92.3668L70.5742 92.9243C70.5321 92.9401 70.4734 92.9558 70.398 92.9716C70.3226 92.9891 70.2271 92.9979 70.1114 92.9979C69.9361 92.9979 69.7643 92.9602 69.596 92.8848C69.4294 92.8094 69.291 92.6946 69.1805 92.5404C69.0718 92.3861 69.0175 92.1915 69.0175 91.9566V87.9386ZM71.4341 92.9453V88.9062H72.0336V89.5163H72.0757C72.1493 89.3165 72.2826 89.1543 72.4754 89.0298C72.6682 88.9054 72.8856 88.8431 73.1275 88.8431C73.1731 88.8431 73.2301 88.844 73.2985 88.8458C73.3668 88.8475 73.4186 88.8501 73.4536 88.8537V89.4848C73.4326 89.4795 73.3844 89.4716 73.309 89.4611C73.2354 89.4488 73.1573 89.4427 73.075 89.4427C72.8786 89.4427 72.7033 89.4839 72.549 89.5663C72.3965 89.6469 72.2756 89.7591 72.1861 89.9029C72.0985 90.0449 72.0547 90.207 72.0547 90.3893V92.9453H71.4341ZM74.1892 92.9453V88.9062H74.8098V92.9453H74.1892ZM74.5048 88.2331C74.3838 88.2331 74.2795 88.1919 74.1919 88.1095C74.106 88.0271 74.063 87.928 74.063 87.8123C74.063 87.6966 74.106 87.5976 74.1919 87.5152C74.2795 87.4328 74.3838 87.3916 74.5048 87.3916C74.6258 87.3916 74.7292 87.4328 74.8151 87.5152C74.9027 87.5976 74.9466 87.6966 74.9466 87.8123C74.9466 87.928 74.9027 88.0271 74.8151 88.1095C74.7292 88.1919 74.6258 88.2331 74.5048 88.2331ZM77.5874 93.0295C77.2087 93.0295 76.8826 92.9401 76.6091 92.7612C76.3357 92.5824 76.1253 92.3361 75.978 92.0223C75.8308 91.7085 75.7571 91.35 75.7571 90.9468C75.7571 90.5366 75.8325 90.1746 75.9833 89.8608C76.1358 89.5452 76.3479 89.2989 76.6197 89.1219C76.8931 88.9431 77.2122 88.8537 77.5768 88.8537C77.8608 88.8537 78.1168 88.9062 78.3447 89.0114C78.5726 89.1166 78.7593 89.2639 78.9048 89.4532C79.0503 89.6425 79.1406 89.8634 79.1756 90.1159H78.555C78.5077 89.9318 78.4025 89.7688 78.2395 89.6268C78.0782 89.483 77.8608 89.4111 77.5874 89.4111C77.3454 89.4111 77.1333 89.4742 76.951 89.6005C76.7704 89.7249 76.6293 89.9011 76.5276 90.129C76.4277 90.3552 76.3777 90.6207 76.3777 90.9258C76.3777 91.2378 76.4268 91.5095 76.525 91.741C76.6249 91.9724 76.7652 92.152 76.9457 92.28C77.128 92.408 77.3419 92.472 77.5874 92.472C77.7486 92.472 77.895 92.4439 78.0265 92.3878C78.158 92.3317 78.2693 92.2511 78.3605 92.1459C78.4516 92.0407 78.5165 91.9145 78.555 91.7673H79.1756C79.1406 92.0057 79.0538 92.2204 78.9153 92.4115C78.7786 92.6008 78.5971 92.7516 78.371 92.8638C78.1466 92.9742 77.8854 93.0295 77.5874 93.0295ZM80.0828 92.9453V88.9062H80.7034V92.9453H80.0828ZM80.3984 88.2331C80.2774 88.2331 80.1731 88.1919 80.0855 88.1095C79.9996 88.0271 79.9566 87.928 79.9566 87.8123C79.9566 87.6966 79.9996 87.5976 80.0855 87.5152C80.1731 87.4328 80.2774 87.3916 80.3984 87.3916C80.5194 87.3916 80.6228 87.4328 80.7087 87.5152C80.7963 87.5976 80.8402 87.6966 80.8402 87.8123C80.8402 87.928 80.7963 88.0271 80.7087 88.1095C80.6228 88.1919 80.5194 88.2331 80.3984 88.2331ZM83.5966 88.9062V89.4322H81.5035V88.9062H83.5966ZM82.1136 87.9386H82.7341V91.7883C82.7341 91.9636 82.7596 92.0951 82.8104 92.1827C82.863 92.2686 82.9296 92.3265 83.0102 92.3563C83.0926 92.3843 83.1794 92.3984 83.2706 92.3984C83.3389 92.3984 83.395 92.3948 83.4389 92.3878C83.4827 92.3791 83.5178 92.3721 83.5441 92.3668L83.6703 92.9243C83.6282 92.9401 83.5695 92.9558 83.4941 92.9716C83.4187 92.9891 83.3232 92.9979 83.2075 92.9979C83.0322 92.9979 82.8604 92.9602 82.6921 92.8848C82.5255 92.8094 82.387 92.6946 82.2766 92.5404C82.1679 92.3861 82.1136 92.1915 82.1136 91.9566V87.9386ZM84.9299 94.46C84.8247 94.46 84.7309 94.4512 84.6485 94.4337C84.5661 94.4179 84.5091 94.4021 84.4776 94.3863L84.6353 93.8394C84.7861 93.8779 84.9193 93.892 85.035 93.8815C85.1507 93.8709 85.2533 93.8192 85.3427 93.7263C85.4339 93.6351 85.5171 93.487 85.5925 93.2819L85.7082 92.9663L84.2146 88.9062H84.8878L86.0027 92.1249H86.0448L87.1598 88.9062H87.8329L86.1184 93.5343C86.0413 93.743 85.9458 93.9156 85.8318 94.0524C85.7179 94.1909 85.5855 94.2934 85.4347 94.36C85.2857 94.4267 85.1174 94.46 84.9299 94.46Z" fill="#303030"/>
<path d="M275.786 88.8125L277.809 90.8312L279.832 88.8125L280.453 89.434L277.809 92.0786L275.164 89.434L275.786 88.8125Z" fill="#303030"/>
</g>
<rect x="48.5223" y="80.1317" width="236.959" height="20.6281" rx="0.264463" stroke="#E4E4F3" stroke-width="0.528926"/>
<g clip-path="url(#clip4_3242_54990)">
<path d="M51.2826 112.557C51.2586 112.344 51.1594 112.179 50.9851 112.062C50.8108 111.943 50.5914 111.884 50.3269 111.884C50.1376 111.884 49.9738 111.914 49.8356 111.974C49.6973 112.032 49.5899 112.113 49.5133 112.217C49.4381 112.319 49.4006 112.436 49.4006 112.566C49.4006 112.676 49.4261 112.771 49.4772 112.85C49.5298 112.93 49.5982 112.997 49.6823 113.051C49.768 113.104 49.8596 113.148 49.9573 113.184C50.055 113.219 50.1489 113.247 50.239 113.27L50.6898 113.387C50.8371 113.423 50.9881 113.472 51.1429 113.533C51.2976 113.595 51.4411 113.676 51.5734 113.777C51.7056 113.878 51.8123 114.002 51.8934 114.151C51.9761 114.3 52.0174 114.478 52.0174 114.685C52.0174 114.947 51.9498 115.179 51.8145 115.382C51.6808 115.585 51.4862 115.745 51.2308 115.862C50.9768 115.979 50.6695 116.038 50.3089 116.038C49.9633 116.038 49.6643 115.983 49.4118 115.873C49.1594 115.763 48.9618 115.608 48.819 115.406C48.6763 115.204 48.5974 114.963 48.5824 114.685H49.2811C49.2946 114.852 49.3487 114.991 49.4434 115.102C49.5396 115.212 49.662 115.294 49.8108 115.348C49.961 115.4 50.1256 115.427 50.3044 115.427C50.5012 115.427 50.6763 115.396 50.8296 115.334C50.9843 115.271 51.106 115.184 51.1947 115.073C51.2834 114.96 51.3277 114.829 51.3277 114.678C51.3277 114.542 51.2886 114.43 51.2105 114.343C51.1338 114.255 51.0294 114.183 50.8972 114.126C50.7665 114.069 50.6184 114.019 50.4532 113.975L49.9077 113.826C49.5381 113.726 49.245 113.578 49.0287 113.382C48.8138 113.187 48.7063 112.929 48.7063 112.607C48.7063 112.341 48.7785 112.109 48.9227 111.911C49.067 111.712 49.2623 111.558 49.5088 111.449C49.7552 111.337 50.0332 111.282 50.3427 111.282C50.6553 111.282 50.931 111.337 51.1699 111.446C51.4103 111.556 51.5997 111.707 51.7379 111.899C51.8761 112.09 51.9483 112.31 51.9543 112.557H51.2826ZM54.2877 116.031C53.9466 116.031 53.6528 115.958 53.4064 115.812C53.1615 115.665 52.9721 115.458 52.8384 115.192C52.7062 114.925 52.64 114.612 52.64 114.252C52.64 113.898 52.7062 113.585 52.8384 113.315C52.9721 113.044 53.1585 112.833 53.3974 112.681C53.6378 112.53 53.9188 112.454 54.2403 112.454C54.4357 112.454 54.625 112.486 54.8083 112.551C54.9917 112.615 55.1562 112.717 55.302 112.855C55.4477 112.993 55.5627 113.173 55.6468 113.394C55.731 113.613 55.773 113.88 55.773 114.194V114.433H53.021V113.928H55.1126C55.1126 113.751 55.0766 113.594 55.0044 113.457C54.9323 113.319 54.8309 113.21 54.7001 113.13C54.5709 113.05 54.4192 113.011 54.2449 113.011C54.0555 113.011 53.8902 113.057 53.749 113.15C53.6092 113.242 53.5011 113.362 53.4244 113.511C53.3493 113.658 53.3117 113.818 53.3117 113.991V114.385C53.3117 114.617 53.3523 114.814 53.4334 114.976C53.5161 115.138 53.631 115.262 53.7783 115.348C53.9255 115.432 54.0976 115.474 54.2944 115.474C54.4222 115.474 54.5386 115.456 54.6438 115.42C54.749 115.382 54.8399 115.327 54.9165 115.253C54.9932 115.18 55.0518 115.089 55.0923 114.98L55.7302 115.095C55.6791 115.283 55.5875 115.448 55.4552 115.589C55.3245 115.729 55.16 115.838 54.9616 115.916C54.7648 115.992 54.5401 116.031 54.2877 116.031ZM57.1947 111.345V115.961H56.5208V111.345H57.1947ZM59.5935 116.031C59.2524 116.031 58.9586 115.958 58.7122 115.812C58.4672 115.665 58.2779 115.458 58.1442 115.192C58.0119 114.925 57.9458 114.612 57.9458 114.252C57.9458 113.898 58.0119 113.585 58.1442 113.315C58.2779 113.044 58.4642 112.833 58.7032 112.681C58.9436 112.53 59.2246 112.454 59.5461 112.454C59.7415 112.454 59.9308 112.486 60.1141 112.551C60.2974 112.615 60.462 112.717 60.6077 112.855C60.7535 112.993 60.8684 113.173 60.9526 113.394C61.0367 113.613 61.0788 113.88 61.0788 114.194V114.433H58.3267V113.928H60.4184C60.4184 113.751 60.3823 113.594 60.3102 113.457C60.2381 113.319 60.1367 113.21 60.0059 113.13C59.8767 113.05 59.7249 113.011 59.5506 113.011C59.3613 113.011 59.196 113.057 59.0548 113.15C58.915 113.242 58.8068 113.362 58.7302 113.511C58.6551 113.658 58.6175 113.818 58.6175 113.991V114.385C58.6175 114.617 58.6581 114.814 58.7392 114.976C58.8219 115.138 58.9368 115.262 59.0841 115.348C59.2313 115.432 59.4034 115.474 59.6002 115.474C59.7279 115.474 59.8444 115.456 59.9496 115.42C60.0548 115.382 60.1457 115.327 60.2223 115.253C60.2989 115.18 60.3575 115.089 60.3981 114.98L61.036 115.095C60.9849 115.283 60.8932 115.448 60.761 115.589C60.6303 115.729 60.4657 115.838 60.2674 115.916C60.0705 115.992 59.8459 116.031 59.5935 116.031ZM63.2849 116.031C62.9498 116.031 62.6613 115.955 62.4193 115.803C62.1789 115.65 61.9941 115.439 61.8649 115.17C61.7356 114.901 61.671 114.593 61.671 114.246C61.671 113.894 61.7372 113.584 61.8694 113.315C62.0016 113.044 62.1879 112.833 62.4284 112.681C62.6688 112.53 62.952 112.454 63.2781 112.454C63.5411 112.454 63.7755 112.503 63.9813 112.6C64.1872 112.696 64.3532 112.832 64.4794 113.006C64.6072 113.18 64.6831 113.384 64.7071 113.617H64.0512C64.0151 113.455 63.9325 113.315 63.8033 113.198C63.6755 113.08 63.5042 113.022 63.2894 113.022C63.1015 113.022 62.937 113.071 62.7958 113.171C62.656 113.268 62.5471 113.408 62.4689 113.59C62.3908 113.77 62.3517 113.983 62.3517 114.23C62.3517 114.482 62.39 114.7 62.4667 114.884C62.5433 115.067 62.6515 115.209 62.7912 115.31C62.9325 115.41 63.0985 115.461 63.2894 115.461C63.4171 115.461 63.5328 115.437 63.6365 115.391C63.7417 115.343 63.8296 115.274 63.9002 115.186C63.9723 115.097 64.0226 114.99 64.0512 114.866H64.7071C64.6831 115.089 64.6102 115.289 64.4885 115.465C64.3668 115.641 64.2037 115.779 63.9994 115.88C63.7965 115.98 63.5583 116.031 63.2849 116.031ZM67.0439 112.499V113.04H65.1528V112.499H67.0439ZM65.66 111.669H66.3339V114.944C66.3339 115.075 66.3534 115.174 66.3925 115.24C66.4316 115.304 66.4819 115.349 66.5435 115.373C66.6066 115.395 66.675 115.406 66.7486 115.406C66.8027 115.406 66.85 115.403 66.8906 115.395C66.9312 115.388 66.9627 115.382 66.9853 115.377L67.107 115.934C67.0679 115.949 67.0123 115.964 66.9402 115.979C66.8681 115.995 66.7779 116.005 66.6697 116.006C66.4924 116.009 66.3271 115.977 66.1739 115.911C66.0206 115.845 65.8966 115.743 65.802 115.605C65.7073 115.467 65.66 115.293 65.66 115.084V111.669ZM69.5232 115.961V111.345H70.1971V113.06H70.2377C70.2768 112.988 70.3331 112.905 70.4068 112.81C70.4804 112.715 70.5826 112.633 70.7133 112.562C70.844 112.49 71.0168 112.454 71.2317 112.454C71.5112 112.454 71.7606 112.524 71.98 112.666C72.1994 112.807 72.3714 113.011 72.4962 113.276C72.6224 113.542 72.6855 113.863 72.6855 114.237C72.6855 114.611 72.6231 114.932 72.4984 115.199C72.3737 115.465 72.2024 115.67 71.9845 115.814C71.7666 115.957 71.518 116.029 71.2385 116.029C71.0281 116.029 70.856 115.993 70.7223 115.923C70.5901 115.852 70.4864 115.769 70.4113 115.675C70.3361 115.58 70.2783 115.496 70.2377 115.422H70.1814V115.961H69.5232ZM70.1836 114.23C70.1836 114.473 70.2189 114.687 70.2896 114.87C70.3602 115.053 70.4624 115.197 70.5961 115.301C70.7298 115.403 70.8936 115.454 71.0874 115.454C71.2888 115.454 71.4571 115.4 71.5923 115.294C71.7276 115.186 71.8297 115.039 71.8989 114.854C71.9695 114.669 72.0048 114.461 72.0048 114.23C72.0048 114.002 71.9702 113.796 71.9011 113.615C71.8335 113.433 71.7313 113.289 71.5946 113.184C71.4594 113.079 71.2903 113.026 71.0874 113.026C70.8921 113.026 70.7268 113.077 70.5916 113.177C70.4578 113.278 70.3564 113.418 70.2873 113.599C70.2182 113.779 70.1836 113.989 70.1836 114.23ZM73.4423 115.961V112.499H74.1162V115.961H73.4423ZM73.7826 111.965C73.6654 111.965 73.5647 111.926 73.4806 111.847C73.3979 111.768 73.3566 111.673 73.3566 111.563C73.3566 111.452 73.3979 111.358 73.4806 111.279C73.5647 111.2 73.6654 111.16 73.7826 111.16C73.8998 111.16 73.9997 111.2 74.0824 111.279C74.1665 111.358 74.2086 111.452 74.2086 111.563C74.2086 111.673 74.1665 111.768 74.0824 111.847C73.9997 111.926 73.8998 111.965 73.7826 111.965ZM75.6968 111.345V115.961H75.0228V111.345H75.6968ZM77.2773 111.345V115.961H76.6034V111.345H77.2773ZM79.6761 116.031C79.335 116.031 79.0412 115.958 78.7948 115.812C78.5499 115.665 78.3606 115.458 78.2268 115.192C78.0946 114.925 78.0285 114.612 78.0285 114.252C78.0285 113.898 78.0946 113.585 78.2268 113.315C78.3606 113.044 78.5469 112.833 78.7858 112.681C79.0262 112.53 79.3072 112.454 79.6288 112.454C79.8241 112.454 80.0134 112.486 80.1968 112.551C80.3801 112.615 80.5446 112.717 80.6904 112.855C80.8361 112.993 80.9511 113.173 81.0352 113.394C81.1194 113.613 81.1615 113.88 81.1615 114.194V114.433H78.4094V113.928H80.501C80.501 113.751 80.465 113.594 80.3929 113.457C80.3207 113.319 80.2193 113.21 80.0886 113.13C79.9594 113.05 79.8076 113.011 79.6333 113.011C79.4439 113.011 79.2787 113.057 79.1374 113.15C78.9977 113.242 78.8895 113.362 78.8128 113.511C78.7377 113.658 78.7001 113.818 78.7001 113.991V114.385C78.7001 114.617 78.7407 114.814 78.8219 114.976C78.9045 115.138 79.0195 115.262 79.1667 115.348C79.314 115.432 79.486 115.474 79.6829 115.474C79.8106 115.474 79.927 115.456 80.0322 115.42C80.1374 115.382 80.2283 115.327 80.305 115.253C80.3816 115.18 80.4402 115.089 80.4808 114.98L81.1186 115.095C81.0675 115.283 80.9759 115.448 80.8436 115.589C80.7129 115.729 80.5484 115.838 80.35 115.916C80.1532 115.992 79.9285 116.031 79.6761 116.031ZM81.9092 115.961V112.499H82.5606V113.049H82.5967C82.6598 112.863 82.771 112.716 82.9302 112.609C83.091 112.501 83.2728 112.447 83.4757 112.447C83.5178 112.447 83.5674 112.449 83.6245 112.452C83.6831 112.455 83.7289 112.458 83.7619 112.463V113.107C83.7349 113.1 83.6868 113.092 83.6177 113.083C83.5486 113.072 83.4794 113.067 83.4103 113.067C83.251 113.067 83.1091 113.101 82.9843 113.168C82.8611 113.234 82.7634 113.327 82.6913 113.446C82.6192 113.563 82.5831 113.696 82.5831 113.847V115.961H81.9092Z" fill="#303030"/>
</g>
<rect x="48.5223" y="121.921" width="236.959" height="20.6281" rx="0.264463" fill="white"/>
<g clip-path="url(#clip5_3242_54990)">
<path d="M54.4199 134.734H53.7362L55.7137 129.349H56.3868L58.3643 134.734H57.6806L56.0713 130.201H56.0292L54.4199 134.734ZM54.6723 132.631H57.4282V133.209H54.6723V132.631ZM59.2031 134.734V129.349H62.4533V129.927H59.8553V131.747H62.285V132.326H59.8553V134.156H62.4954V134.734H59.2031ZM65.2907 134.734H63.6288V129.349H65.3643C65.8867 129.349 66.3338 129.457 66.7054 129.672C67.0771 129.886 67.3619 130.194 67.56 130.595C67.7581 130.995 67.8572 131.474 67.8572 132.031C67.8572 132.592 67.7572 133.075 67.5574 133.48C67.3575 133.883 67.0665 134.194 66.6844 134.411C66.3022 134.627 65.8376 134.734 65.2907 134.734ZM64.2809 134.156H65.2486C65.6939 134.156 66.0629 134.07 66.3557 133.898C66.6484 133.726 66.8667 133.482 67.0104 133.165C67.1542 132.847 67.2261 132.469 67.2261 132.031C67.2261 131.596 67.1551 131.222 67.0131 130.908C66.8711 130.593 66.6589 130.351 66.3767 130.183C66.0945 130.012 65.743 129.927 65.3222 129.927H64.2809V134.156ZM73.2847 131.032H72.6325C72.594 130.844 72.5265 130.68 72.43 130.538C72.3354 130.396 72.2197 130.276 72.0829 130.18C71.948 130.082 71.7981 130.008 71.6333 129.959C71.4685 129.91 71.2967 129.885 71.1179 129.885C70.7918 129.885 70.4964 129.968 70.2317 130.133C69.9687 130.297 69.7592 130.54 69.6032 130.861C69.449 131.182 69.3718 131.575 69.3718 132.042C69.3718 132.508 69.449 132.902 69.6032 133.222C69.7592 133.543 69.9687 133.786 70.2317 133.951C70.4964 134.116 70.7918 134.198 71.1179 134.198C71.2967 134.198 71.4685 134.173 71.6333 134.124C71.7981 134.075 71.948 134.002 72.0829 133.906C72.2197 133.808 72.3354 133.688 72.43 133.546C72.5265 133.402 72.594 133.237 72.6325 133.051H73.2847C73.2356 133.327 73.1462 133.573 73.0164 133.79C72.8867 134.008 72.7254 134.193 72.5326 134.345C72.3398 134.496 72.1233 134.611 71.8831 134.69C71.6447 134.769 71.3896 134.808 71.1179 134.808C70.6586 134.808 70.2501 134.696 69.8925 134.471C69.5349 134.247 69.2535 133.928 69.0484 133.514C68.8433 133.101 68.7407 132.61 68.7407 132.042C68.7407 131.474 68.8433 130.983 69.0484 130.569C69.2535 130.155 69.5349 129.836 69.8925 129.612C70.2501 129.388 70.6586 129.275 71.1179 129.275C71.3896 129.275 71.6447 129.315 71.8831 129.394C72.1233 129.473 72.3398 129.588 72.5326 129.741C72.7254 129.892 72.8867 130.076 73.0164 130.293C73.1462 130.509 73.2356 130.755 73.2847 131.032Z" fill="#303030"/>
<path d="M275.786 130.602L277.809 132.62L279.832 130.602L280.453 131.223L277.809 133.868L275.164 131.223L275.786 130.602Z" fill="#303030"/>
</g>
<rect x="48.5223" y="121.921" width="236.959" height="20.6281" rx="0.264463" stroke="#E4E4F3" stroke-width="0.528926"/>
<g clip-path="url(#clip6_3242_54990)">
<path d="M48.7649 153.126H49.6102L51.0798 156.714H51.1338L52.6034 153.126H53.4486V157.742H52.786V154.402H52.7432L51.3818 157.735H50.8318L49.4704 154.4H49.4276V157.742H48.7649V153.126ZM55.8992 157.812C55.5581 157.812 55.2644 157.739 55.018 157.593C54.773 157.446 54.5837 157.24 54.45 156.974C54.3177 156.706 54.2516 156.393 54.2516 156.034C54.2516 155.679 54.3177 155.367 54.45 155.096C54.5837 154.826 54.77 154.614 55.0089 154.463C55.2494 154.311 55.5304 154.235 55.8519 154.235C56.0473 154.235 56.2366 154.267 56.4199 154.332C56.6032 154.397 56.7678 154.498 56.9135 154.636C57.0593 154.774 57.1742 154.954 57.2584 155.175C57.3425 155.394 57.3846 155.661 57.3846 155.975V156.214H54.6325V155.709H56.7242C56.7242 155.532 56.6881 155.375 56.616 155.238C56.5439 155.1 56.4424 154.991 56.3117 154.911C56.1825 154.832 56.0307 154.792 55.8564 154.792C55.6671 154.792 55.5018 154.838 55.3606 154.932C55.2208 155.023 55.1126 155.143 55.036 155.292C54.9609 155.439 54.9233 155.599 54.9233 155.772V156.167C54.9233 156.398 54.9639 156.595 55.045 156.757C55.1276 156.919 55.2426 157.043 55.3899 157.129C55.5371 157.213 55.7092 157.255 55.906 157.255C56.0337 157.255 56.1502 157.237 56.2554 157.201C56.3606 157.164 56.4515 157.108 56.5281 157.034C56.6047 156.961 56.6633 156.87 56.7039 156.762L57.3418 156.877C57.2907 157.065 57.199 157.229 57.0668 157.37C56.9361 157.51 56.7715 157.619 56.5732 157.697C56.3763 157.774 56.1517 157.812 55.8992 157.812ZM59.7484 154.28V154.821H57.8574V154.28H59.7484ZM58.3645 153.451H59.0384V156.726C59.0384 156.856 59.058 156.955 59.097 157.021C59.1361 157.086 59.1864 157.13 59.248 157.154C59.3112 157.176 59.3795 157.188 59.4532 157.188C59.5072 157.188 59.5546 157.184 59.5952 157.176C59.6357 157.169 59.6673 157.163 59.6898 157.158L59.8115 157.715C59.7725 157.73 59.7169 157.745 59.6447 157.76C59.5726 157.777 59.4825 157.786 59.3743 157.787C59.197 157.79 59.0317 157.759 58.8784 157.693C58.7251 157.626 58.6012 157.524 58.5065 157.386C58.4118 157.248 58.3645 157.074 58.3645 156.865V153.451ZM61.9488 157.812C61.6077 157.812 61.314 157.739 61.0675 157.593C60.8226 157.446 60.6333 157.24 60.4995 156.974C60.3673 156.706 60.3012 156.393 60.3012 156.034C60.3012 155.679 60.3673 155.367 60.4995 155.096C60.6333 154.826 60.8196 154.614 61.0585 154.463C61.2989 154.311 61.5799 154.235 61.9015 154.235C62.0968 154.235 62.2862 154.267 62.4695 154.332C62.6528 154.397 62.8174 154.498 62.9631 154.636C63.1089 154.774 63.2238 154.954 63.308 155.175C63.3921 155.394 63.4342 155.661 63.4342 155.975V156.214H60.6821V155.709H62.7738C62.7738 155.532 62.7377 155.375 62.6656 155.238C62.5935 155.1 62.492 154.991 62.3613 154.911C62.2321 154.832 62.0803 154.792 61.906 154.792C61.7167 154.792 61.5514 154.838 61.4101 154.932C61.2704 155.023 61.1622 155.143 61.0856 155.292C61.0104 155.439 60.9729 155.599 60.9729 155.772V156.167C60.9729 156.398 61.0134 156.595 61.0946 156.757C61.1772 156.919 61.2922 157.043 61.4394 157.129C61.5867 157.213 61.7588 157.255 61.9556 157.255C62.0833 157.255 62.1998 157.237 62.305 157.201C62.4101 157.164 62.501 157.108 62.5777 157.034C62.6543 156.961 62.7129 156.87 62.7535 156.762L63.3914 156.877C63.3403 157.065 63.2486 157.229 63.1164 157.37C62.9856 157.51 62.8211 157.619 62.6228 157.697C62.4259 157.774 62.2013 157.812 61.9488 157.812ZM64.1819 157.742V154.28H64.8333V154.83H64.8694C64.9325 154.644 65.0437 154.497 65.203 154.391C65.3637 154.282 65.5456 154.228 65.7484 154.228C65.7905 154.228 65.8401 154.23 65.8972 154.233C65.9558 154.236 66.0016 154.24 66.0347 154.244V154.889C66.0076 154.881 65.9595 154.873 65.8904 154.864C65.8213 154.853 65.7522 154.848 65.6831 154.848C65.5238 154.848 65.3818 154.882 65.2571 154.95C65.1338 155.016 65.0362 155.108 64.964 155.227C64.8919 155.344 64.8559 155.478 64.8559 155.628V157.742H64.1819ZM68.9716 155.687V157.742H68.2976V154.28H68.9445V154.844H68.9873C69.067 154.66 69.1917 154.513 69.3615 154.402C69.5328 154.291 69.7484 154.235 70.0084 154.235C70.2443 154.235 70.4509 154.285 70.6282 154.384C70.8055 154.481 70.943 154.627 71.0407 154.821C71.1384 155.015 71.1872 155.255 71.1872 155.54V157.742H70.5133V155.621C70.5133 155.37 70.4479 155.174 70.3172 155.033C70.1864 154.89 70.0069 154.819 69.7785 154.819C69.6222 154.819 69.4832 154.853 69.3615 154.92C69.2413 154.988 69.1459 155.087 69.0752 155.218C69.0061 155.347 68.9716 155.503 68.9716 155.687ZM74.2841 156.306V154.28H74.9603V157.742H74.2976V157.143H74.2616C74.1819 157.327 74.0542 157.481 73.8784 157.605C73.7041 157.726 73.487 157.787 73.227 157.787C73.0046 157.787 72.8078 157.738 72.6365 157.641C72.4667 157.542 72.3329 157.395 72.2353 157.201C72.1391 157.007 72.091 156.768 72.091 156.482V154.28H72.7649V156.401C72.7649 156.637 72.8303 156.825 72.961 156.965C73.0918 157.104 73.2616 157.174 73.4704 157.174C73.5967 157.174 73.7221 157.143 73.8468 157.08C73.9731 157.016 74.0775 156.921 74.1601 156.793C74.2443 156.666 74.2856 156.503 74.2841 156.306ZM75.8658 157.742V154.28H76.5127V154.844H76.5555C76.6276 154.653 76.7456 154.504 76.9094 154.397C77.0732 154.289 77.2693 154.235 77.4977 154.235C77.7291 154.235 77.9229 154.289 78.0792 154.397C78.237 154.506 78.3534 154.654 78.4285 154.844H78.4646C78.5473 154.659 78.6787 154.512 78.8591 154.402C79.0394 154.291 79.2542 154.235 79.5037 154.235C79.8177 154.235 80.0739 154.333 80.2723 154.53C80.4721 154.727 80.572 155.024 80.572 155.421V157.742H79.8981V155.484C79.8981 155.249 79.8343 155.08 79.7065 154.974C79.5788 154.869 79.4263 154.817 79.249 154.817C79.0296 154.817 78.8591 154.884 78.7373 155.019C78.6156 155.153 78.5548 155.325 78.5548 155.536V157.742H77.8831V155.441C77.8831 155.253 77.8245 155.102 77.7073 154.988C77.5901 154.874 77.4376 154.817 77.2497 154.817C77.122 154.817 77.0041 154.85 76.8959 154.918C76.7892 154.984 76.7028 155.077 76.6367 155.195C76.572 155.314 76.5397 155.451 76.5397 155.608V157.742H75.8658ZM81.5294 157.742V153.126H82.2033V154.841H82.2439C82.283 154.769 82.3393 154.686 82.413 154.591C82.4866 154.497 82.5888 154.414 82.7195 154.343C82.8502 154.271 83.023 154.235 83.2379 154.235C83.5174 154.235 83.7668 154.306 83.9862 154.447C84.2056 154.588 84.3776 154.792 84.5024 155.058C84.6286 155.324 84.6917 155.644 84.6917 156.018C84.6917 156.392 84.6293 156.713 84.5046 156.98C84.3799 157.246 84.2086 157.451 83.9907 157.596C83.7728 157.738 83.5242 157.81 83.2447 157.81C83.0343 157.81 82.8622 157.774 82.7285 157.704C82.5963 157.633 82.4926 157.551 82.4175 157.456C82.3423 157.361 82.2845 157.277 82.2439 157.203H82.1876V157.742H81.5294ZM82.1898 156.011C82.1898 156.255 82.2251 156.468 82.2958 156.651C82.3664 156.835 82.4686 156.978 82.6023 157.082C82.736 157.184 82.8998 157.235 83.0936 157.235C83.295 157.235 83.4633 157.182 83.5985 157.075C83.7338 156.967 83.8359 156.82 83.9051 156.636C83.9757 156.451 84.011 156.243 84.011 156.011C84.011 155.783 83.9764 155.578 83.9073 155.396C83.8397 155.214 83.7375 155.071 83.6008 154.965C83.4655 154.86 83.2965 154.808 83.0936 154.808C82.8983 154.808 82.733 154.858 82.5978 154.959C82.464 155.059 82.3626 155.2 82.2935 155.38C82.2244 155.56 82.1898 155.771 82.1898 156.011ZM86.9406 157.812C86.5995 157.812 86.3057 157.739 86.0593 157.593C85.8143 157.446 85.625 157.24 85.4913 156.974C85.3591 156.706 85.2929 156.393 85.2929 156.034C85.2929 155.679 85.3591 155.367 85.4913 155.096C85.625 154.826 85.8113 154.614 86.0503 154.463C86.2907 154.311 86.5717 154.235 86.8932 154.235C87.0886 154.235 87.2779 154.267 87.4612 154.332C87.6446 154.397 87.8091 154.498 87.9548 154.636C88.1006 154.774 88.2155 154.954 88.2997 155.175C88.3838 155.394 88.4259 155.661 88.4259 155.975V156.214H85.6739V155.709H87.7655C87.7655 155.532 87.7294 155.375 87.6573 155.238C87.5852 155.1 87.4838 154.991 87.353 154.911C87.2238 154.832 87.072 154.792 86.8977 154.792C86.7084 154.792 86.5431 154.838 86.4019 154.932C86.2621 155.023 86.1539 155.143 86.0773 155.292C86.0022 155.439 85.9646 155.599 85.9646 155.772V156.167C85.9646 156.398 86.0052 156.595 86.0863 156.757C86.169 156.919 86.2839 157.043 86.4312 157.129C86.5784 157.213 86.7505 157.255 86.9473 157.255C87.0751 157.255 87.1915 157.237 87.2967 157.201C87.4019 157.164 87.4928 157.108 87.5694 157.034C87.6461 156.961 87.7047 156.87 87.7452 156.762L88.3831 156.877C88.332 157.065 88.2403 157.229 88.1081 157.37C87.9774 157.51 87.8128 157.619 87.6145 157.697C87.4177 157.774 87.193 157.812 86.9406 157.812ZM89.1737 157.742V154.28H89.8251V154.83H89.8611C89.9242 154.644 90.0354 154.497 90.1947 154.391C90.3555 154.282 90.5373 154.228 90.7402 154.228C90.7822 154.228 90.8318 154.23 90.8889 154.233C90.9475 154.236 90.9933 154.24 91.0264 154.244V154.889C90.9994 154.881 90.9513 154.873 90.8822 154.864C90.813 154.853 90.7439 154.848 90.6748 154.848C90.5155 154.848 90.3735 154.882 90.2488 154.95C90.1256 155.016 90.0279 155.108 89.9558 155.227C89.8837 155.344 89.8476 155.478 89.8476 155.628V157.742H89.1737Z" fill="#303030"/>
</g>
<rect x="48.5223" y="163.702" width="236.959" height="20.6281" rx="0.264463" fill="white"/>
<g clip-path="url(#clip7_3242_54990)">
<path d="M54.199 176.516V171.13H57.4492V171.709H54.8512V173.528H57.2809V174.107H54.8512V175.937H57.4913V176.516H54.199ZM59.1611 174.086V176.516H58.5405V172.477H59.14V173.108H59.1926C59.2873 172.903 59.431 172.738 59.6239 172.613C59.8167 172.487 60.0657 172.424 60.3707 172.424C60.6442 172.424 60.8835 172.48 61.0886 172.592C61.2937 172.703 61.4532 172.871 61.5672 173.097C61.6811 173.322 61.7381 173.606 61.7381 173.949V176.516H61.1175V173.991C61.1175 173.674 61.0351 173.427 60.8703 173.25C60.7055 173.071 60.4794 172.981 60.1919 172.981C59.9938 172.981 59.8167 173.024 59.6607 173.11C59.5064 173.196 59.3846 173.322 59.2952 173.486C59.2058 173.651 59.1611 173.851 59.1611 174.086ZM64.6287 172.477V173.002H62.5355V172.477H64.6287ZM63.1456 171.509H63.7662V175.359C63.7662 175.534 63.7916 175.665 63.8424 175.753C63.895 175.839 63.9616 175.897 64.0423 175.927C64.1247 175.955 64.2114 175.969 64.3026 175.969C64.371 175.969 64.4271 175.965 64.4709 175.958C64.5147 175.949 64.5498 175.942 64.5761 175.937L64.7023 176.495C64.6602 176.51 64.6015 176.526 64.5261 176.542C64.4507 176.559 64.3552 176.568 64.2395 176.568C64.0642 176.568 63.8924 176.531 63.7241 176.455C63.5575 176.38 63.4191 176.265 63.3086 176.111C63.1999 175.956 63.1456 175.762 63.1456 175.527V171.509ZM67.2123 176.6C66.8231 176.6 66.4874 176.514 66.2051 176.342C65.9246 176.169 65.7081 175.927 65.5556 175.616C65.4048 175.304 65.3295 174.941 65.3295 174.528C65.3295 174.114 65.4048 173.749 65.5556 173.434C65.7081 173.116 65.9202 172.869 66.192 172.692C66.4655 172.513 66.7845 172.424 67.1491 172.424C67.3595 172.424 67.5673 172.459 67.7724 172.529C67.9775 172.599 68.1642 172.713 68.3325 172.871C68.5008 173.027 68.6349 173.234 68.7348 173.492C68.8347 173.749 68.8847 174.067 68.8847 174.443V174.706H65.7712V174.17H68.2536C68.2536 173.942 68.208 173.739 68.1168 173.56C68.0274 173.381 67.8995 173.24 67.7329 173.137C67.5681 173.033 67.3735 172.981 67.1491 172.981C66.902 172.981 66.6881 173.043 66.5075 173.166C66.3287 173.286 66.1911 173.444 66.0947 173.639C65.9983 173.833 65.95 174.042 65.95 174.265V174.622C65.95 174.927 66.0026 175.186 66.1078 175.398C66.2148 175.608 66.3629 175.769 66.5522 175.879C66.7416 175.988 66.9616 176.042 67.2123 176.042C67.3753 176.042 67.5226 176.02 67.654 175.974C67.7873 175.927 67.9021 175.856 67.9985 175.764C68.0949 175.669 68.1694 175.551 68.222 175.411L68.8216 175.579C68.7585 175.783 68.6524 175.962 68.5034 176.116C68.3544 176.268 68.1703 176.388 67.9512 176.474C67.732 176.558 67.4857 176.6 67.2123 176.6ZM69.8287 176.516V172.477H70.4283V173.087H70.4703C70.544 172.887 70.6772 172.725 70.87 172.6C71.0629 172.476 71.2803 172.413 71.5222 172.413C71.5678 172.413 71.6247 172.414 71.6931 172.416C71.7615 172.418 71.8132 172.42 71.8482 172.424V173.055C71.8272 173.05 71.779 173.042 71.7036 173.031C71.63 173.019 71.552 173.013 71.4696 173.013C71.2732 173.013 71.0979 173.054 70.9437 173.137C70.7911 173.217 70.6702 173.329 70.5808 173.473C70.4931 173.615 70.4493 173.777 70.4493 173.96V176.516H69.8287ZM74.6665 176.516V172.477H75.2661V173.108H75.3187C75.4028 172.892 75.5387 172.725 75.7262 172.605C75.9138 172.484 76.1391 172.424 76.4021 172.424C76.6685 172.424 76.8903 172.484 77.0673 172.605C77.2462 172.725 77.3855 172.892 77.4855 173.108H77.5275C77.631 172.899 77.7861 172.733 77.993 172.611C78.1998 172.486 78.4479 172.424 78.7371 172.424C79.0983 172.424 79.3937 172.537 79.6233 172.763C79.853 172.988 79.9678 173.337 79.9678 173.812V176.516H79.3472V173.812C79.3472 173.514 79.2657 173.301 79.1027 173.173C78.9396 173.045 78.7477 172.981 78.5268 172.981C78.2428 172.981 78.0228 173.067 77.8667 173.239C77.7107 173.409 77.6327 173.625 77.6327 173.886V176.516H77.0016V173.749C77.0016 173.52 76.9271 173.335 76.7781 173.194C76.6291 173.052 76.4371 172.981 76.2022 172.981C76.0409 172.981 75.8902 173.024 75.7499 173.11C75.6114 173.196 75.4992 173.315 75.4133 173.468C75.3292 173.619 75.2871 173.793 75.2871 173.991V176.516H74.6665ZM82.7959 176.6C82.4068 176.6 82.071 176.514 81.7888 176.342C81.5083 176.169 81.2918 175.927 81.1393 175.616C80.9885 175.304 80.9131 174.941 80.9131 174.528C80.9131 174.114 80.9885 173.749 81.1393 173.434C81.2918 173.116 81.5039 172.869 81.7756 172.692C82.0491 172.513 82.3682 172.424 82.7328 172.424C82.9432 172.424 83.1509 172.459 83.356 172.529C83.5611 172.599 83.7478 172.713 83.9161 172.871C84.0844 173.027 84.2185 173.234 84.3185 173.492C84.4184 173.749 84.4684 174.067 84.4684 174.443V174.706H81.3549V174.17H83.8373C83.8373 173.942 83.7917 173.739 83.7005 173.56C83.6111 173.381 83.4831 173.24 83.3166 173.137C83.1518 173.033 82.9572 172.981 82.7328 172.981C82.4856 172.981 82.2718 173.043 82.0912 173.166C81.9124 173.286 81.7748 173.444 81.6784 173.639C81.5819 173.833 81.5337 174.042 81.5337 174.265V174.622C81.5337 174.927 81.5863 175.186 81.6915 175.398C81.7984 175.608 81.9466 175.769 82.1359 175.879C82.3252 175.988 82.5452 176.042 82.7959 176.042C82.959 176.042 83.1062 176.02 83.2377 175.974C83.3709 175.927 83.4858 175.856 83.5822 175.764C83.6786 175.669 83.7531 175.551 83.8057 175.411L84.4052 175.579C84.3421 175.783 84.2361 175.962 84.0871 176.116C83.9381 176.268 83.754 176.388 83.5349 176.474C83.3157 176.558 83.0694 176.6 82.7959 176.6ZM87.169 172.477V173.002H85.0758V172.477H87.169ZM85.6859 171.509H86.3065V175.359C86.3065 175.534 86.3319 175.665 86.3827 175.753C86.4353 175.839 86.5019 175.897 86.5826 175.927C86.665 175.955 86.7517 175.969 86.8429 175.969C86.9113 175.969 86.9674 175.965 87.0112 175.958C87.055 175.949 87.0901 175.942 87.1164 175.937L87.2426 176.495C87.2005 176.51 87.1418 176.526 87.0664 176.542C86.991 176.559 86.8955 176.568 86.7798 176.568C86.6045 176.568 86.4327 176.531 86.2644 176.455C86.0978 176.38 85.9593 176.265 85.8489 176.111C85.7402 175.956 85.6859 175.762 85.6859 175.527V171.509ZM89.7525 176.6C89.3634 176.6 89.0277 176.514 88.7454 176.342C88.4649 176.169 88.2484 175.927 88.0959 175.616C87.9451 175.304 87.8698 174.941 87.8698 174.528C87.8698 174.114 87.9451 173.749 88.0959 173.434C88.2484 173.116 88.4605 172.869 88.7323 172.692C89.0057 172.513 89.3248 172.424 89.6894 172.424C89.8998 172.424 90.1075 172.459 90.3127 172.529C90.5178 172.599 90.7045 172.713 90.8728 172.871C91.0411 173.027 91.1752 173.234 91.2751 173.492C91.375 173.749 91.425 174.067 91.425 174.443V174.706H88.3115V174.17H90.7939C90.7939 173.942 90.7483 173.739 90.6571 173.56C90.5677 173.381 90.4397 173.24 90.2732 173.137C90.1084 173.033 89.9138 172.981 89.6894 172.981C89.4423 172.981 89.2284 173.043 89.0478 173.166C88.869 173.286 88.7314 173.444 88.635 173.639C88.5385 173.833 88.4903 174.042 88.4903 174.265V174.622C88.4903 174.927 88.5429 175.186 88.6481 175.398C88.7551 175.608 88.9032 175.769 89.0925 175.879C89.2818 175.988 89.5019 176.042 89.7525 176.042C89.9156 176.042 90.0628 176.02 90.1943 175.974C90.3276 175.927 90.4424 175.856 90.5388 175.764C90.6352 175.669 90.7097 175.551 90.7623 175.411L91.3619 175.579C91.2988 175.783 91.1927 175.962 91.0437 176.116C90.8947 176.268 90.7106 176.388 90.4915 176.474C90.2723 176.558 90.026 176.6 89.7525 176.6ZM92.369 176.516V172.477H92.9685V173.087H93.0106C93.0842 172.887 93.2175 172.725 93.4103 172.6C93.6032 172.476 93.8205 172.413 94.0625 172.413C94.108 172.413 94.165 172.414 94.2334 172.416C94.3018 172.418 94.3535 172.42 94.3885 172.424V173.055C94.3675 173.05 94.3193 173.042 94.2439 173.031C94.1703 173.019 94.0923 173.013 94.0099 173.013C93.8135 173.013 93.6382 173.054 93.4839 173.137C93.3314 173.217 93.2105 173.329 93.1211 173.473C93.0334 173.615 92.9896 173.777 92.9896 173.96V176.516H92.369ZM97.8274 174.086V176.516H97.2068V172.477H97.8064V173.108H97.8589C97.9536 172.903 98.0974 172.738 98.2902 172.613C98.483 172.487 98.732 172.424 99.037 172.424C99.3105 172.424 99.5498 172.48 99.7549 172.592C99.96 172.703 100.12 172.871 100.233 173.097C100.347 173.322 100.404 173.606 100.404 173.949V176.516H99.7838V173.991C99.7838 173.674 99.7014 173.427 99.5366 173.25C99.3718 173.071 99.1457 172.981 98.8582 172.981C98.6601 172.981 98.483 173.024 98.327 173.11C98.1727 173.196 98.0509 173.322 97.9615 173.486C97.8721 173.651 97.8274 173.851 97.8274 174.086ZM104.084 174.864V172.477H104.704V176.516H104.084V175.832H104.042C103.947 176.037 103.8 176.211 103.6 176.355C103.4 176.497 103.148 176.568 102.843 176.568C102.59 176.568 102.366 176.513 102.17 176.403C101.973 176.29 101.819 176.122 101.707 175.898C101.595 175.672 101.538 175.387 101.538 175.043V172.477H102.159V175.001C102.159 175.295 102.241 175.53 102.406 175.706C102.573 175.881 102.785 175.969 103.043 175.969C103.197 175.969 103.354 175.929 103.513 175.85C103.675 175.771 103.81 175.65 103.918 175.487C104.029 175.324 104.084 175.117 104.084 174.864ZM105.841 176.516V172.477H106.441V173.108H106.493C106.577 172.892 106.713 172.725 106.901 172.605C107.088 172.484 107.314 172.424 107.577 172.424C107.843 172.424 108.065 172.484 108.242 172.605C108.421 172.725 108.56 172.892 108.66 173.108H108.702C108.806 172.899 108.961 172.733 109.168 172.611C109.374 172.486 109.622 172.424 109.912 172.424C110.273 172.424 110.568 172.537 110.798 172.763C111.028 172.988 111.142 173.337 111.142 173.812V176.516H110.522V173.812C110.522 173.514 110.44 173.301 110.277 173.173C110.114 173.045 109.922 172.981 109.701 172.981C109.417 172.981 109.197 173.067 109.041 173.239C108.885 173.409 108.807 173.625 108.807 173.886V176.516H108.176V173.749C108.176 173.52 108.102 173.335 107.953 173.194C107.804 173.052 107.612 172.981 107.377 172.981C107.216 172.981 107.065 173.024 106.924 173.11C106.786 173.196 106.674 173.315 106.588 173.468C106.504 173.619 106.462 173.793 106.462 173.991V176.516H105.841ZM112.361 176.516V171.13H112.982V173.118H113.034C113.08 173.048 113.143 172.959 113.224 172.85C113.306 172.74 113.424 172.641 113.576 172.555C113.73 172.468 113.939 172.424 114.202 172.424C114.542 172.424 114.842 172.509 115.101 172.679C115.361 172.849 115.563 173.09 115.709 173.402C115.854 173.714 115.927 174.082 115.927 174.507C115.927 174.934 115.854 175.305 115.709 175.619C115.563 175.931 115.362 176.173 115.104 176.345C114.846 176.515 114.549 176.6 114.212 176.6C113.953 176.6 113.745 176.557 113.589 176.471C113.433 176.383 113.313 176.284 113.229 176.174C113.145 176.062 113.08 175.969 113.034 175.895H112.961V176.516H112.361ZM112.971 174.496C112.971 174.801 113.016 175.07 113.105 175.303C113.195 175.535 113.325 175.716 113.497 175.848C113.669 175.977 113.879 176.042 114.128 176.042C114.388 176.042 114.604 175.974 114.778 175.837C114.953 175.699 115.085 175.513 115.172 175.28C115.262 175.045 115.306 174.784 115.306 174.496C115.306 174.212 115.263 173.956 115.175 173.728C115.089 173.499 114.958 173.317 114.783 173.184C114.61 173.049 114.391 172.981 114.128 172.981C113.876 172.981 113.664 173.045 113.492 173.173C113.32 173.3 113.19 173.477 113.103 173.705C113.015 173.931 112.971 174.195 112.971 174.496ZM118.57 176.6C118.181 176.6 117.845 176.514 117.563 176.342C117.282 176.169 117.066 175.927 116.913 175.616C116.762 175.304 116.687 174.941 116.687 174.528C116.687 174.114 116.762 173.749 116.913 173.434C117.066 173.116 117.278 172.869 117.549 172.692C117.823 172.513 118.142 172.424 118.507 172.424C118.717 172.424 118.925 172.459 119.13 172.529C119.335 172.599 119.522 172.713 119.69 172.871C119.858 173.027 119.992 173.234 120.092 173.492C120.192 173.749 120.242 174.067 120.242 174.443V174.706H117.129V174.17H119.611C119.611 173.942 119.565 173.739 119.474 173.56C119.385 173.381 119.257 173.24 119.09 173.137C118.926 173.033 118.731 172.981 118.507 172.981C118.259 172.981 118.046 173.043 117.865 173.166C117.686 173.286 117.549 173.444 117.452 173.639C117.356 173.833 117.307 174.042 117.307 174.265V174.622C117.307 174.927 117.36 175.186 117.465 175.398C117.572 175.608 117.72 175.769 117.91 175.879C118.099 175.988 118.319 176.042 118.57 176.042C118.733 176.042 118.88 176.02 119.011 175.974C119.145 175.927 119.26 175.856 119.356 175.764C119.452 175.669 119.527 175.551 119.579 175.411L120.179 175.579C120.116 175.783 120.01 175.962 119.861 176.116C119.712 176.268 119.528 176.388 119.309 176.474C119.089 176.558 118.843 176.6 118.57 176.6ZM121.186 176.516V172.477H121.786V173.087H121.828C121.901 172.887 122.035 172.725 122.227 172.6C122.42 172.476 122.638 172.413 122.88 172.413C122.925 172.413 122.982 172.414 123.051 172.416C123.119 172.418 123.171 172.42 123.206 172.424V173.055C123.185 173.05 123.136 173.042 123.061 173.031C122.987 173.019 122.909 173.013 122.827 173.013C122.631 173.013 122.455 173.054 122.301 173.137C122.149 173.217 122.028 173.329 121.938 173.473C121.851 173.615 121.807 173.777 121.807 173.96V176.516H121.186Z" fill="#9CA3AF"/>
</g>
<rect x="48.5223" y="163.702" width="236.959" height="20.6281" rx="0.264463" stroke="#E4E4F3" stroke-width="0.528926"/>
<g clip-path="url(#clip8_3242_54990)">
<path d="M52.5989 196.416H51.8957C51.8686 196.266 51.8183 196.134 51.7447 196.02C51.671 195.905 51.5809 195.808 51.4742 195.729C51.3675 195.649 51.248 195.589 51.1158 195.549C50.9851 195.508 50.8461 195.488 50.6988 195.488C50.4329 195.488 50.1947 195.555 49.9843 195.688C49.7755 195.822 49.6102 196.018 49.4885 196.277C49.3683 196.535 49.3082 196.851 49.3082 197.223C49.3082 197.599 49.3683 197.916 49.4885 198.174C49.6102 198.433 49.7762 198.628 49.9866 198.76C50.197 198.893 50.4336 198.959 50.6966 198.959C50.8423 198.959 50.9806 198.939 51.1113 198.9C51.2435 198.86 51.363 198.8 51.4697 198.722C51.5764 198.644 51.6665 198.549 51.7402 198.436C51.8153 198.322 51.8671 198.191 51.8957 198.044L52.5989 198.046C52.5613 198.273 52.4885 198.482 52.3803 198.672C52.2736 198.862 52.1361 199.026 51.9678 199.164C51.801 199.301 51.6102 199.407 51.3953 199.482C51.1804 199.557 50.946 199.594 50.6921 199.594C50.2924 199.594 49.9362 199.5 49.6237 199.31C49.3112 199.12 49.0647 198.847 48.8844 198.492C48.7056 198.138 48.6162 197.715 48.6162 197.223C48.6162 196.73 48.7063 196.307 48.8867 195.954C49.067 195.6 49.3134 195.328 49.626 195.138C49.9385 194.947 50.2939 194.852 50.6921 194.852C50.937 194.852 51.1654 194.887 51.3773 194.958C51.5906 195.027 51.7822 195.129 51.952 195.265C52.1218 195.398 52.2623 195.562 52.3735 195.756C52.4847 195.948 52.5598 196.168 52.5989 196.416ZM55.5713 198.095V196.069H56.2475V199.531H55.5848V198.932H55.5488C55.4691 199.117 55.3414 199.271 55.1656 199.394C54.9913 199.515 54.7742 199.576 54.5142 199.576C54.2918 199.576 54.095 199.527 53.9237 199.43C53.7539 199.331 53.6201 199.184 53.5225 198.99C53.4263 198.796 53.3782 198.557 53.3782 198.271V196.069H54.0521V198.19C54.0521 198.426 54.1175 198.614 54.2482 198.754C54.379 198.893 54.5488 198.963 54.7576 198.963C54.8838 198.963 55.0093 198.932 55.134 198.869C55.2603 198.805 55.3647 198.71 55.4473 198.582C55.5315 198.455 55.5728 198.292 55.5713 198.095ZM59.7473 196.914L59.1365 197.023C59.1109 196.944 59.0704 196.87 59.0148 196.799C58.9607 196.729 58.887 196.671 58.7939 196.626C58.7007 196.581 58.5843 196.558 58.4445 196.558C58.2537 196.558 58.0944 196.601 57.9667 196.687C57.839 196.771 57.7751 196.88 57.7751 197.014C57.7751 197.129 57.8179 197.222 57.9036 197.293C57.9892 197.364 58.1275 197.422 58.3183 197.467L58.8683 197.593C59.1868 197.666 59.4242 197.78 59.5805 197.933C59.7368 198.086 59.8149 198.286 59.8149 198.53C59.8149 198.738 59.7548 198.923 59.6346 199.085C59.5159 199.246 59.3498 199.372 59.1365 199.464C58.9246 199.555 58.6789 199.601 58.3994 199.601C58.0118 199.601 57.6955 199.518 57.4505 199.353C57.2056 199.186 57.0553 198.95 56.9997 198.643L57.6511 198.544C57.6917 198.714 57.7751 198.842 57.9013 198.929C58.0275 199.015 58.1921 199.058 58.3949 199.058C58.6158 199.058 58.7924 199.012 58.9246 198.92C59.0568 198.827 59.123 198.714 59.123 198.58C59.123 198.472 59.0824 198.381 59.0012 198.307C58.9216 198.234 58.7991 198.178 58.6338 198.141L58.0478 198.012C57.7248 197.938 57.4858 197.821 57.3311 197.66C57.1778 197.5 57.1012 197.296 57.1012 197.05C57.1012 196.845 57.1583 196.666 57.2725 196.513C57.3867 196.36 57.5444 196.24 57.7458 196.155C57.9471 196.068 58.1778 196.024 58.4378 196.024C58.8119 196.024 59.1064 196.105 59.3213 196.268C59.5362 196.428 59.6782 196.644 59.7473 196.914ZM62.172 196.069V196.61H60.2809V196.069H62.172ZM60.7881 195.24H61.462V198.515C61.462 198.645 61.4815 198.744 61.5206 198.81C61.5597 198.875 61.61 198.919 61.6716 198.943C61.7347 198.966 61.8031 198.977 61.8767 198.977C61.9308 198.977 61.9781 198.973 62.0187 198.966C62.0593 198.958 62.0908 198.952 62.1134 198.947L62.2351 199.504C62.196 199.519 62.1404 199.534 62.0683 199.549C61.9962 199.566 61.906 199.575 61.7978 199.576C61.6205 199.579 61.4552 199.548 61.302 199.482C61.1487 199.416 61.0247 199.313 60.9301 199.175C60.8354 199.037 60.7881 198.863 60.7881 198.654V195.24ZM64.3386 199.601C64.014 199.601 63.7308 199.527 63.4888 199.378C63.2469 199.229 63.0591 199.021 62.9254 198.754C62.7916 198.486 62.7248 198.174 62.7248 197.816C62.7248 197.457 62.7916 197.143 62.9254 196.874C63.0591 196.605 63.2469 196.396 63.4888 196.247C63.7308 196.098 64.014 196.024 64.3386 196.024C64.6631 196.024 64.9464 196.098 65.1883 196.247C65.4302 196.396 65.6181 196.605 65.7518 196.874C65.8855 197.143 65.9524 197.457 65.9524 197.816C65.9524 198.174 65.8855 198.486 65.7518 198.754C65.6181 199.021 65.4302 199.229 65.1883 199.378C64.9464 199.527 64.6631 199.601 64.3386 199.601ZM64.3408 199.035C64.5512 199.035 64.7255 198.98 64.8637 198.869C65.002 198.757 65.1042 198.609 65.1703 198.425C65.2379 198.24 65.2717 198.036 65.2717 197.814C65.2717 197.593 65.2379 197.39 65.1703 197.205C65.1042 197.019 65.002 196.869 64.8637 196.757C64.7255 196.644 64.5512 196.588 64.3408 196.588C64.129 196.588 63.9532 196.644 63.8134 196.757C63.6752 196.869 63.5722 197.019 63.5046 197.205C63.4385 197.39 63.4054 197.593 63.4054 197.814C63.4054 198.036 63.4385 198.24 63.5046 198.425C63.5722 198.609 63.6752 198.757 63.8134 198.869C63.9532 198.98 64.129 199.035 64.3408 199.035ZM66.7047 199.531V196.069H67.3515V196.633H67.3944C67.4665 196.442 67.5844 196.293 67.7482 196.186C67.912 196.078 68.1081 196.024 68.3365 196.024C68.5679 196.024 68.7618 196.078 68.918 196.186C69.0758 196.295 69.1923 196.443 69.2674 196.633H69.3035C69.3861 196.448 69.5176 196.301 69.6979 196.191C69.8782 196.08 70.0931 196.024 70.3425 196.024C70.6566 196.024 70.9128 196.123 71.1111 196.319C71.311 196.516 71.4109 196.813 71.4109 197.21V199.531H70.737V197.273C70.737 197.038 70.6731 196.869 70.5454 196.763C70.4177 196.658 70.2651 196.606 70.0878 196.606C69.8684 196.606 69.6979 196.673 69.5762 196.808C69.4545 196.942 69.3936 197.114 69.3936 197.325V199.531H68.7219V197.23C68.7219 197.042 68.6633 196.891 68.5461 196.777C68.4289 196.663 68.2764 196.606 68.0886 196.606C67.9609 196.606 67.8429 196.639 67.7347 196.707C67.628 196.773 67.5416 196.866 67.4755 196.984C67.4109 197.103 67.3786 197.24 67.3786 197.397V199.531H66.7047ZM73.8063 199.601C73.4652 199.601 73.1714 199.528 72.925 199.382C72.68 199.235 72.4907 199.029 72.357 198.763C72.2248 198.495 72.1586 198.182 72.1586 197.823C72.1586 197.468 72.2248 197.156 72.357 196.885C72.4907 196.615 72.677 196.404 72.916 196.252C73.1564 196.1 73.4374 196.024 73.7589 196.024C73.9543 196.024 74.1436 196.056 74.3269 196.121C74.5103 196.186 74.6748 196.287 74.8205 196.425C74.9663 196.564 75.0813 196.743 75.1654 196.964C75.2495 197.183 75.2916 197.45 75.2916 197.764V198.003H72.5396V197.498H74.6312C74.6312 197.321 74.5952 197.164 74.523 197.027C74.4509 196.889 74.3495 196.78 74.2187 196.7C74.0895 196.621 73.9378 196.581 73.7634 196.581C73.5741 196.581 73.4088 196.627 73.2676 196.721C73.1278 196.812 73.0196 196.932 72.943 197.081C72.8679 197.228 72.8303 197.389 72.8303 197.561V197.956C72.8303 198.187 72.8709 198.384 72.952 198.546C73.0347 198.709 73.1496 198.833 73.2969 198.918C73.4441 199.002 73.6162 199.044 73.813 199.044C73.9408 199.044 74.0572 199.026 74.1624 198.99C74.2676 198.953 74.3585 198.897 74.4351 198.824C74.5118 198.75 74.5704 198.659 74.6109 198.551L75.2488 198.666C75.1977 198.854 75.106 199.018 74.9738 199.159C74.8431 199.299 74.6785 199.408 74.4802 199.486C74.2834 199.563 74.0587 199.601 73.8063 199.601ZM76.0394 199.531V196.069H76.6908V196.619H76.7268C76.7899 196.433 76.9011 196.286 77.0604 196.18C77.2212 196.071 77.403 196.017 77.6059 196.017C77.6479 196.017 77.6975 196.019 77.7546 196.022C77.8132 196.025 77.859 196.029 77.8921 196.033V196.678C77.8651 196.67 77.817 196.662 77.7479 196.653C77.6787 196.642 77.6096 196.637 77.5405 196.637C77.3812 196.637 77.2392 196.671 77.1145 196.739C76.9913 196.805 76.8936 196.897 76.8215 197.016C76.7494 197.133 76.7133 197.267 76.7133 197.417V199.531H76.0394ZM83.9349 194.915V199.531H83.2948L80.9485 196.146H80.9056V199.531H80.2092V194.915H80.8538L83.2024 198.305H83.2452V194.915H83.9349ZM85.9043 199.608C85.6849 199.608 85.4866 199.567 85.3093 199.486C85.132 199.404 84.9915 199.284 84.8878 199.128C84.7856 198.972 84.7345 198.78 84.7345 198.553C84.7345 198.358 84.7721 198.197 84.8472 198.071C84.9223 197.944 85.0238 197.845 85.1515 197.771C85.2792 197.697 85.422 197.642 85.5797 197.604C85.7375 197.567 85.8983 197.538 86.0621 197.518C86.2695 197.494 86.4377 197.475 86.567 197.46C86.6962 197.443 86.7901 197.417 86.8487 197.381C86.9073 197.345 86.9366 197.286 86.9366 197.205V197.189C86.9366 196.993 86.881 196.84 86.7698 196.732C86.6601 196.624 86.4964 196.57 86.2785 196.57C86.0516 196.57 85.8728 196.62 85.742 196.721C85.6128 196.82 85.5234 196.93 85.4738 197.052L84.8405 196.908C84.9156 196.697 85.0253 196.527 85.1695 196.398C85.3153 196.268 85.4828 196.173 85.6722 196.114C85.8615 196.054 86.0606 196.024 86.2695 196.024C86.4077 196.024 86.5542 196.041 86.709 196.074C86.8652 196.105 87.011 196.164 87.1462 196.25C87.283 196.335 87.3949 196.458 87.4821 196.617C87.5692 196.775 87.6128 196.98 87.6128 197.232V199.531H86.9547V199.058H86.9276C86.884 199.145 86.8187 199.231 86.7315 199.315C86.6444 199.399 86.5324 199.469 86.3957 199.524C86.2589 199.58 86.0951 199.608 85.9043 199.608ZM86.0508 199.067C86.2371 199.067 86.3964 199.03 86.5287 198.956C86.6624 198.883 86.7638 198.787 86.8329 198.668C86.9036 198.548 86.9389 198.419 86.9389 198.283V197.836C86.9148 197.86 86.8683 197.883 86.7991 197.904C86.7315 197.923 86.6541 197.941 86.567 197.956C86.4798 197.969 86.3949 197.982 86.3123 197.994C86.2296 198.005 86.1605 198.014 86.1049 198.021C85.9742 198.038 85.8547 198.065 85.7465 198.105C85.6399 198.144 85.5542 198.2 85.4896 198.274C85.4265 198.346 85.3949 198.442 85.3949 198.562C85.3949 198.729 85.4565 198.855 85.5797 198.941C85.703 199.025 85.86 199.067 86.0508 199.067ZM88.5104 199.531V196.069H89.1573V196.633H89.2001C89.2723 196.442 89.3902 196.293 89.554 196.186C89.7178 196.078 89.9139 196.024 90.1423 196.024C90.3737 196.024 90.5675 196.078 90.7238 196.186C90.8816 196.295 90.998 196.443 91.0732 196.633H91.1092C91.1919 196.448 91.3234 196.301 91.5037 196.191C91.684 196.08 91.8989 196.024 92.1483 196.024C92.4624 196.024 92.7186 196.123 92.9169 196.319C93.1167 196.516 93.2167 196.813 93.2167 197.21V199.531H92.5427V197.273C92.5427 197.038 92.4789 196.869 92.3512 196.763C92.2234 196.658 92.0709 196.606 91.8936 196.606C91.6742 196.606 91.5037 196.673 91.382 196.808C91.2603 196.942 91.1994 197.114 91.1994 197.325V199.531H90.5277V197.23C90.5277 197.042 90.4691 196.891 90.3519 196.777C90.2347 196.663 90.0822 196.606 89.8944 196.606C89.7666 196.606 89.6487 196.639 89.5405 196.707C89.4338 196.773 89.3474 196.866 89.2813 196.984C89.2167 197.103 89.1844 197.24 89.1844 197.397V199.531H88.5104ZM95.6121 199.601C95.271 199.601 94.9772 199.528 94.7308 199.382C94.4858 199.235 94.2965 199.029 94.1628 198.763C94.0305 198.495 93.9644 198.182 93.9644 197.823C93.9644 197.468 94.0305 197.156 94.1628 196.885C94.2965 196.615 94.4828 196.404 94.7217 196.252C94.9622 196.1 95.2432 196.024 95.5647 196.024C95.7601 196.024 95.9494 196.056 96.1327 196.121C96.316 196.186 96.4806 196.287 96.6263 196.425C96.7721 196.564 96.887 196.743 96.9712 196.964C97.0553 197.183 97.0974 197.45 97.0974 197.764V198.003H94.3453V197.498H96.437C96.437 197.321 96.4009 197.164 96.3288 197.027C96.2567 196.889 96.1553 196.78 96.0245 196.7C95.8953 196.621 95.7435 196.581 95.5692 196.581C95.3799 196.581 95.2146 196.627 95.0734 196.721C94.9336 196.812 94.8254 196.932 94.7488 197.081C94.6737 197.228 94.6361 197.389 94.6361 197.561V197.956C94.6361 198.187 94.6767 198.384 94.7578 198.546C94.8405 198.709 94.9554 198.833 95.1027 198.918C95.2499 199.002 95.422 199.044 95.6188 199.044C95.7465 199.044 95.863 199.026 95.9682 198.99C96.0734 198.953 96.1643 198.897 96.2409 198.824C96.3175 198.75 96.3761 198.659 96.4167 198.551L97.0546 198.666C97.0035 198.854 96.9118 199.018 96.7796 199.159C96.6489 199.299 96.4843 199.408 96.286 199.486C96.0891 199.563 95.8645 199.601 95.6121 199.601Z" fill="#303030"/>
</g>
<rect x="48.5223" y="205.491" width="236.959" height="20.6281" rx="0.264463" fill="#FAFAFA"/>
<rect x="48.5223" y="205.491" width="236.959" height="20.6281" rx="0.264463" stroke="#E4E4F3" stroke-width="0.528926"/>
<g clip-path="url(#clip9_3242_54990)">
<path d="M49.1549 241.312H48.4156L50.0767 236.696H50.8814L52.5426 241.312H51.8033L50.4982 237.535H50.4622L49.1549 241.312ZM49.2788 239.505H51.677V240.091H49.2788V239.505ZM53.1551 241.312V237.85H53.802V238.414H53.8448C53.9169 238.223 54.0349 238.074 54.1986 237.968C54.3624 237.859 54.5585 237.805 54.7869 237.805C55.0183 237.805 55.2122 237.859 55.3684 237.968C55.5262 238.076 55.6427 238.225 55.7178 238.414H55.7539C55.8365 238.229 55.968 238.082 56.1483 237.972C56.3286 237.861 56.5435 237.805 56.7929 237.805C57.107 237.805 57.3632 237.904 57.5615 238.101C57.7614 238.297 57.8613 238.594 57.8613 238.991V241.312H57.1874V239.054C57.1874 238.82 57.1235 238.65 56.9958 238.545C56.8681 238.439 56.7156 238.387 56.5382 238.387C56.3189 238.387 56.1483 238.454 56.0266 238.59C55.9049 238.723 55.844 238.896 55.844 239.106V241.312H55.1723V239.011C55.1723 238.823 55.1137 238.672 54.9965 238.558C54.8793 238.444 54.7268 238.387 54.539 238.387C54.4113 238.387 54.2933 238.421 54.1851 238.488C54.0784 238.554 53.992 238.647 53.9259 238.766C53.8613 238.884 53.829 239.022 53.829 239.178V241.312H53.1551ZM60.2229 241.382C59.8983 241.382 59.6151 241.308 59.3731 241.159C59.1312 241.01 58.9434 240.802 58.8097 240.535C58.6759 240.267 58.6091 239.955 58.6091 239.597C58.6091 239.238 58.6759 238.924 58.8097 238.655C58.9434 238.386 59.1312 238.177 59.3731 238.029C59.6151 237.88 59.8983 237.805 60.2229 237.805C60.5474 237.805 60.8307 237.88 61.0726 238.029C61.3145 238.177 61.5024 238.386 61.6361 238.655C61.7698 238.924 61.8367 239.238 61.8367 239.597C61.8367 239.955 61.7698 240.267 61.6361 240.535C61.5024 240.802 61.3145 241.01 61.0726 241.159C60.8307 241.308 60.5474 241.382 60.2229 241.382ZM60.2251 240.817C60.4355 240.817 60.6098 240.761 60.748 240.65C60.8863 240.539 60.9885 240.391 61.0546 240.206C61.1222 240.021 61.156 239.817 61.156 239.595C61.156 239.374 61.1222 239.171 61.0546 238.986C60.9885 238.8 60.8863 238.651 60.748 238.538C60.6098 238.425 60.4355 238.369 60.2251 238.369C60.0133 238.369 59.8375 238.425 59.6977 238.538C59.5595 238.651 59.4565 238.8 59.3889 238.986C59.3228 239.171 59.2897 239.374 59.2897 239.595C59.2897 239.817 59.3228 240.021 59.3889 240.206C59.4565 240.391 59.5595 240.539 59.6977 240.65C59.8375 240.761 60.0133 240.817 60.2251 240.817ZM64.782 239.877V237.85H65.4582V241.312H64.7956V240.713H64.7595C64.6799 240.898 64.5521 241.052 64.3763 241.175C64.202 241.297 63.9849 241.358 63.7249 241.358C63.5026 241.358 63.3057 241.309 63.1344 241.211C62.9646 241.112 62.8309 240.965 62.7332 240.772C62.637 240.578 62.589 240.338 62.589 240.053V237.85H63.2629V239.971C63.2629 240.207 63.3282 240.395 63.459 240.535C63.5897 240.675 63.7595 240.745 63.9684 240.745C64.0946 240.745 64.2201 240.713 64.3448 240.65C64.471 240.587 64.5754 240.491 64.6581 240.364C64.7422 240.236 64.7835 240.074 64.782 239.877ZM67.0377 239.257V241.312H66.3637V237.85H67.0106V238.414H67.0535C67.1331 238.231 67.2578 238.083 67.4276 237.972C67.5989 237.861 67.8145 237.805 68.0745 237.805C68.3104 237.805 68.517 237.855 68.6943 237.954C68.8716 238.052 69.0091 238.198 69.1068 238.391C69.2045 238.585 69.2533 238.825 69.2533 239.11V241.312H68.5794V239.192C68.5794 238.941 68.514 238.745 68.3833 238.603C68.2526 238.461 68.073 238.389 67.8446 238.389C67.6883 238.389 67.5493 238.423 67.4276 238.491C67.3074 238.558 67.212 238.657 67.1414 238.788C67.0722 238.917 67.0377 239.074 67.0377 239.257ZM71.7732 237.85V238.391H69.8822V237.85H71.7732ZM70.3893 237.021H71.0632V240.296C71.0632 240.427 71.0828 240.525 71.1218 240.591C71.1609 240.656 71.2112 240.7 71.2728 240.724C71.3359 240.747 71.4043 240.758 71.4779 240.758C71.532 240.758 71.5794 240.754 71.6199 240.747C71.6605 240.739 71.6921 240.733 71.7146 240.729L71.8363 241.285C71.7973 241.3 71.7417 241.316 71.6695 241.331C71.5974 241.347 71.5072 241.356 71.3991 241.358C71.2217 241.361 71.0565 241.329 70.9032 241.263C70.7499 241.197 70.626 241.095 70.5313 240.956C70.4366 240.818 70.3893 240.645 70.3893 240.436V237.021Z" fill="#303030"/>
</g>
<rect x="48.5223" y="247.272" width="236.959" height="20.6281" rx="0.264463" fill="white"/>
<g clip-path="url(#clip10_3242_54990)">
<path d="M54.199 260.086V254.701H57.4492V255.279H54.8512V257.099H57.2809V257.677H54.8512V259.507H57.4913V260.086H54.199ZM59.1611 257.656V260.086H58.5405V256.047H59.14V256.678H59.1926C59.2873 256.473 59.431 256.308 59.6239 256.184C59.8167 256.057 60.0657 255.994 60.3707 255.994C60.6442 255.994 60.8835 256.05 61.0886 256.163C61.2937 256.273 61.4532 256.441 61.5672 256.667C61.6811 256.892 61.7381 257.176 61.7381 257.519V260.086H61.1175V257.562C61.1175 257.244 61.0351 256.997 60.8703 256.82C60.7055 256.641 60.4794 256.552 60.1919 256.552C59.9938 256.552 59.8167 256.595 59.6607 256.681C59.5064 256.767 59.3846 256.892 59.2952 257.057C59.2058 257.221 59.1611 257.421 59.1611 257.656ZM64.6287 256.047V256.573H62.5355V256.047H64.6287ZM63.1456 255.079H63.7662V258.929C63.7662 259.104 63.7916 259.236 63.8424 259.323C63.895 259.409 63.9616 259.467 64.0423 259.497C64.1247 259.525 64.2114 259.539 64.3026 259.539C64.371 259.539 64.4271 259.535 64.4709 259.528C64.5147 259.52 64.5498 259.513 64.5761 259.507L64.7023 260.065C64.6602 260.081 64.6015 260.096 64.5261 260.112C64.4507 260.13 64.3552 260.139 64.2395 260.139C64.0642 260.139 63.8924 260.101 63.7241 260.025C63.5575 259.95 63.4191 259.835 63.3086 259.681C63.1999 259.527 63.1456 259.332 63.1456 259.097V255.079ZM67.2123 260.17C66.8231 260.17 66.4874 260.084 66.2051 259.912C65.9246 259.739 65.7081 259.497 65.5556 259.187C65.4048 258.875 65.3295 258.512 65.3295 258.098C65.3295 257.684 65.4048 257.32 65.5556 257.004C65.7081 256.687 65.9202 256.44 66.192 256.262C66.4655 256.084 66.7845 255.994 67.1491 255.994C67.3595 255.994 67.5673 256.029 67.7724 256.099C67.9775 256.17 68.1642 256.284 68.3325 256.441C68.5008 256.597 68.6349 256.804 68.7348 257.062C68.8347 257.32 68.8847 257.637 68.8847 258.014V258.277H65.7712V257.74H68.2536C68.2536 257.512 68.208 257.309 68.1168 257.13C68.0274 256.951 67.8995 256.81 67.7329 256.707C67.5681 256.603 67.3735 256.552 67.1491 256.552C66.902 256.552 66.6881 256.613 66.5075 256.736C66.3287 256.857 66.1911 257.015 66.0947 257.209C65.9983 257.404 65.95 257.612 65.95 257.835V258.193C65.95 258.498 66.0026 258.756 66.1078 258.968C66.2148 259.179 66.3629 259.339 66.5522 259.45C66.7416 259.558 66.9616 259.613 67.2123 259.613C67.3753 259.613 67.5226 259.59 67.654 259.544C67.7873 259.497 67.9021 259.427 67.9985 259.334C68.0949 259.239 68.1694 259.122 68.222 258.982L68.8216 259.15C68.7585 259.353 68.6524 259.532 68.5034 259.686C68.3544 259.839 68.1703 259.958 67.9512 260.044C67.732 260.128 67.4857 260.17 67.2123 260.17ZM69.8287 260.086V256.047H70.4283V256.657H70.4703C70.544 256.457 70.6772 256.295 70.87 256.17C71.0629 256.046 71.2803 255.984 71.5222 255.984C71.5678 255.984 71.6247 255.985 71.6931 255.986C71.7615 255.988 71.8132 255.991 71.8482 255.994V256.625C71.8272 256.62 71.779 256.612 71.7036 256.602C71.63 256.589 71.552 256.583 71.4696 256.583C71.2732 256.583 71.0979 256.625 70.9437 256.707C70.7911 256.788 70.6702 256.9 70.5808 257.043C70.4931 257.185 70.4493 257.348 70.4493 257.53V260.086H69.8287ZM75.8551 260.181C75.5992 260.181 75.3669 260.132 75.1583 260.036C74.9496 259.938 74.784 259.797 74.6613 259.613C74.5385 259.427 74.4772 259.202 74.4772 258.939C74.4772 258.708 74.5228 258.52 74.6139 258.377C74.7051 258.231 74.8269 258.117 74.9794 258.035C75.132 257.952 75.3003 257.891 75.4843 257.851C75.6702 257.809 75.8569 257.775 76.0444 257.751C76.2899 257.719 76.4888 257.696 76.6414 257.68C76.7956 257.662 76.9078 257.633 76.9779 257.593C77.0498 257.553 77.0858 257.483 77.0858 257.383V257.362C77.0858 257.102 77.0148 256.901 76.8728 256.757C76.7325 256.613 76.5195 256.541 76.2338 256.541C75.9375 256.541 75.7052 256.606 75.5369 256.736C75.3686 256.866 75.2503 257.004 75.1819 257.151L74.5929 256.941C74.6981 256.696 74.8383 256.504 75.0136 256.368C75.1907 256.229 75.3835 256.133 75.5921 256.078C75.8025 256.022 76.0094 255.994 76.2127 255.994C76.3425 255.994 76.4915 256.01 76.6598 256.042C76.8298 256.071 76.9937 256.134 77.1515 256.228C77.311 256.323 77.4434 256.466 77.5486 256.657C77.6537 256.848 77.7063 257.104 77.7063 257.425V260.086H77.0858V259.539H77.0542C77.0121 259.627 76.942 259.72 76.8438 259.82C76.7457 259.92 76.6151 260.005 76.452 260.075C76.289 260.146 76.09 260.181 75.8551 260.181ZM75.9498 259.623C76.1952 259.623 76.4021 259.575 76.5704 259.478C76.7404 259.382 76.8684 259.258 76.9543 259.105C77.0419 258.953 77.0858 258.792 77.0858 258.624V258.056C77.0595 258.087 77.0016 258.116 76.9122 258.143C76.8245 258.167 76.7229 258.189 76.6072 258.208C76.4932 258.226 76.3819 258.242 76.2732 258.256C76.1663 258.268 76.0795 258.279 76.0129 258.287C75.8516 258.308 75.7008 258.343 75.5606 258.39C75.4221 258.435 75.3099 258.505 75.224 258.598C75.1398 258.689 75.0978 258.813 75.0978 258.971C75.0978 259.187 75.1775 259.35 75.3371 259.46C75.4984 259.569 75.7026 259.623 75.9498 259.623ZM78.839 260.086V256.047H79.4386V256.678H79.4912C79.5753 256.462 79.7112 256.295 79.8988 256.176C80.0863 256.055 80.3116 255.994 80.5746 255.994C80.841 255.994 81.0628 256.055 81.2399 256.176C81.4187 256.295 81.558 256.462 81.658 256.678H81.7C81.8035 256.469 81.9586 256.304 82.1655 256.181C82.3723 256.057 82.6204 255.994 82.9097 255.994C83.2708 255.994 83.5662 256.107 83.7958 256.333C84.0255 256.558 84.1403 256.908 84.1403 257.383V260.086H83.5197V257.383C83.5197 257.085 83.4382 256.872 83.2752 256.744C83.1121 256.616 82.9202 256.552 82.6993 256.552C82.4153 256.552 82.1953 256.638 82.0393 256.809C81.8832 256.98 81.8052 257.195 81.8052 257.456V260.086H81.1741V257.32C81.1741 257.09 81.0996 256.905 80.9506 256.765C80.8016 256.623 80.6096 256.552 80.3747 256.552C80.2134 256.552 80.0627 256.595 79.9224 256.681C79.7839 256.767 79.6717 256.886 79.5858 257.038C79.5017 257.189 79.4596 257.363 79.4596 257.562V260.086H78.839ZM86.9159 260.17C86.5512 260.17 86.2313 260.083 85.9561 259.91C85.6826 259.736 85.4687 259.493 85.3144 259.181C85.1619 258.869 85.0857 258.505 85.0857 258.087C85.0857 257.667 85.1619 257.299 85.3144 256.986C85.4687 256.672 85.6826 256.428 85.9561 256.255C86.2313 256.081 86.5512 255.994 86.9159 255.994C87.2805 255.994 87.5996 256.081 87.873 256.255C88.1483 256.428 88.3621 256.672 88.5147 256.986C88.6689 257.299 88.7461 257.667 88.7461 258.087C88.7461 258.505 88.6689 258.869 88.5147 259.181C88.3621 259.493 88.1483 259.736 87.873 259.91C87.5996 260.083 87.2805 260.17 86.9159 260.17ZM86.9159 259.613C87.1928 259.613 87.4207 259.542 87.5996 259.4C87.7784 259.258 87.9107 259.071 87.9966 258.84C88.0825 258.608 88.1255 258.357 88.1255 258.087C88.1255 257.817 88.0825 257.566 87.9966 257.333C87.9107 257.1 87.7784 256.911 87.5996 256.767C87.4207 256.624 87.1928 256.552 86.9159 256.552C86.6389 256.552 86.411 256.624 86.2322 256.767C86.0534 256.911 85.921 257.1 85.8351 257.333C85.7492 257.566 85.7062 257.817 85.7062 258.087C85.7062 258.357 85.7492 258.608 85.8351 258.84C85.921 259.071 86.0534 259.258 86.2322 259.4C86.411 259.542 86.6389 259.613 86.9159 259.613ZM92.2388 258.435V256.047H92.8594V260.086H92.2388V259.402H92.1968C92.1021 259.607 91.9548 259.782 91.755 259.926C91.5551 260.068 91.3027 260.139 90.9977 260.139C90.7452 260.139 90.5208 260.083 90.3245 259.973C90.1281 259.861 89.9739 259.692 89.8617 259.468C89.7495 259.242 89.6934 258.957 89.6934 258.613V256.047H90.314V258.571C90.314 258.866 90.3964 259.101 90.5611 259.276C90.7277 259.451 90.9398 259.539 91.1975 259.539C91.3518 259.539 91.5087 259.5 91.6682 259.421C91.8295 259.342 91.9645 259.221 92.0732 259.058C92.1836 258.895 92.2388 258.687 92.2388 258.435ZM94.6167 257.656V260.086H93.9961V256.047H94.5956V256.678H94.6482C94.7429 256.473 94.8866 256.308 95.0795 256.184C95.2723 256.057 95.5212 255.994 95.8263 255.994C96.0997 255.994 96.339 256.05 96.5441 256.163C96.7493 256.273 96.9088 256.441 97.0227 256.667C97.1367 256.892 97.1937 257.176 97.1937 257.519V260.086H96.5731V257.562C96.5731 257.244 96.4907 256.997 96.3259 256.82C96.1611 256.641 95.935 256.552 95.6475 256.552C95.4494 256.552 95.2723 256.595 95.1163 256.681C94.962 256.767 94.8402 256.892 94.7508 257.057C94.6614 257.221 94.6167 257.421 94.6167 257.656ZM100.084 256.047V256.573H97.9911V256.047H100.084ZM98.6012 255.079H99.2217V258.929C99.2217 259.104 99.2472 259.236 99.298 259.323C99.3506 259.409 99.4172 259.467 99.4978 259.497C99.5802 259.525 99.667 259.539 99.7582 259.539C99.8265 259.539 99.8826 259.535 99.9265 259.528C99.9703 259.52 100.005 259.513 100.032 259.507L100.158 260.065C100.116 260.081 100.057 260.096 99.9817 260.112C99.9063 260.13 99.8108 260.139 99.6951 260.139C99.5198 260.139 99.348 260.101 99.1797 260.025C99.0131 259.95 98.8746 259.835 98.7642 259.681C98.6555 259.527 98.6012 259.332 98.6012 259.097V255.079Z" fill="#9CA3AF"/>
</g>
<rect x="48.5223" y="247.272" width="236.959" height="20.6281" rx="0.264463" stroke="#E4E4F3" stroke-width="0.528926"/>
</g>
</g>
<g clip-path="url(#clip11_3242_54990)">
<rect x="145.539" y="300.961" width="42.9256" height="19.0413" rx="4.2314" fill="#2C6DEA"/>
<path d="M154.401 312.984V308.368H156.222C156.573 308.368 156.871 308.435 157.117 308.569C157.364 308.701 157.551 308.885 157.681 309.121C157.811 309.356 157.877 309.626 157.877 309.933C157.877 310.239 157.811 310.51 157.678 310.744C157.546 310.978 157.355 311.161 157.104 311.292C156.854 311.422 156.552 311.488 156.198 311.488H155.037V310.706H156.04C156.228 310.706 156.382 310.673 156.504 310.609C156.627 310.543 156.719 310.452 156.779 310.336C156.841 310.219 156.872 310.084 156.872 309.933C156.872 309.779 156.841 309.646 156.779 309.531C156.719 309.416 156.627 309.326 156.504 309.263C156.381 309.198 156.225 309.166 156.035 309.166H155.377V312.984H154.401ZM159.387 313.05C159.166 313.05 158.969 313.011 158.796 312.935C158.624 312.857 158.487 312.742 158.386 312.59C158.287 312.437 158.237 312.246 158.237 312.017C158.237 311.825 158.273 311.664 158.343 311.533C158.414 311.402 158.51 311.297 158.632 311.217C158.754 311.138 158.892 311.078 159.047 311.037C159.203 310.996 159.367 310.968 159.538 310.951C159.739 310.93 159.902 310.911 160.025 310.893C160.148 310.873 160.237 310.845 160.293 310.807C160.349 310.769 160.376 310.714 160.376 310.64V310.627C160.376 310.484 160.331 310.374 160.241 310.295C160.153 310.217 160.026 310.178 159.863 310.178C159.69 310.178 159.552 310.217 159.45 310.293C159.348 310.368 159.28 310.463 159.247 310.577L158.359 310.505C158.404 310.295 158.493 310.113 158.625 309.96C158.757 309.805 158.928 309.686 159.137 309.603C159.347 309.519 159.591 309.477 159.867 309.477C160.059 309.477 160.243 309.5 160.419 309.545C160.597 309.59 160.754 309.66 160.89 309.754C161.029 309.849 161.137 309.971 161.217 310.12C161.297 310.267 161.337 310.443 161.337 310.649V312.984H160.426V312.504H160.399C160.343 312.612 160.269 312.708 160.176 312.791C160.083 312.872 159.971 312.936 159.84 312.982C159.709 313.027 159.558 313.05 159.387 313.05ZM159.662 312.387C159.803 312.387 159.928 312.359 160.036 312.304C160.144 312.247 160.229 312.17 160.291 312.074C160.352 311.978 160.383 311.869 160.383 311.747V311.38C160.353 311.399 160.312 311.417 160.259 311.434C160.208 311.449 160.15 311.463 160.086 311.476C160.021 311.489 159.956 311.5 159.892 311.51C159.827 311.519 159.769 311.528 159.716 311.535C159.603 311.552 159.505 311.578 159.421 311.614C159.337 311.65 159.271 311.699 159.225 311.76C159.178 311.821 159.155 311.896 159.155 311.986C159.155 312.117 159.202 312.217 159.297 312.286C159.393 312.353 159.515 312.387 159.662 312.387ZM162.55 314.283C162.429 314.283 162.314 314.273 162.208 314.253C162.103 314.235 162.015 314.212 161.946 314.183L162.163 313.467C162.275 313.501 162.377 313.52 162.467 313.523C162.559 313.526 162.637 313.505 162.704 313.46C162.771 313.415 162.826 313.338 162.868 313.23L162.924 313.084L161.683 309.522H162.692L163.409 312.065H163.445L164.169 309.522H165.185L163.84 313.359C163.775 313.545 163.687 313.707 163.576 313.845C163.466 313.985 163.327 314.093 163.159 314.168C162.991 314.244 162.788 314.283 162.55 314.283ZM167.164 312.984V308.368H169.012C169.351 308.368 169.635 308.419 169.862 308.519C170.088 308.62 170.259 308.76 170.373 308.939C170.487 309.116 170.545 309.32 170.545 309.552C170.545 309.732 170.508 309.89 170.436 310.027C170.364 310.162 170.265 310.274 170.139 310.361C170.014 310.446 169.871 310.507 169.711 310.543V310.588C169.886 310.596 170.051 310.646 170.204 310.737C170.359 310.829 170.484 310.957 170.581 311.123C170.677 311.286 170.725 311.482 170.725 311.709C170.725 311.954 170.664 312.172 170.542 312.365C170.422 312.555 170.244 312.706 170.008 312.818C169.772 312.929 169.481 312.984 169.136 312.984H167.164ZM168.14 312.186H168.935C169.207 312.186 169.406 312.135 169.53 312.031C169.655 311.926 169.717 311.786 169.717 311.612C169.717 311.484 169.687 311.371 169.625 311.274C169.563 311.176 169.475 311.099 169.361 311.044C169.248 310.988 169.114 310.96 168.958 310.96H168.14V312.186ZM168.14 310.3H168.863C168.997 310.3 169.116 310.277 169.219 310.23C169.324 310.182 169.407 310.114 169.467 310.027C169.529 309.94 169.56 309.836 169.56 309.714C169.56 309.547 169.5 309.413 169.381 309.31C169.264 309.208 169.097 309.157 168.881 309.157H168.14V310.3ZM171.342 312.984V309.522H172.302V312.984H171.342ZM171.824 309.076C171.681 309.076 171.559 309.029 171.457 308.934C171.356 308.838 171.306 308.723 171.306 308.589C171.306 308.457 171.356 308.344 171.457 308.249C171.559 308.153 171.681 308.105 171.824 308.105C171.967 308.105 172.089 308.153 172.189 308.249C172.292 308.344 172.343 308.457 172.343 308.589C172.343 308.723 172.292 308.838 172.189 308.934C172.089 309.029 171.967 309.076 171.824 309.076ZM174.031 308.368V312.984H173.071V308.368H174.031ZM175.761 308.368V312.984H174.801V308.368H175.761ZM179.41 310.51L178.531 310.564C178.516 310.489 178.484 310.421 178.434 310.361C178.385 310.299 178.319 310.25 178.238 310.214C178.159 310.177 178.063 310.158 177.952 310.158C177.803 310.158 177.678 310.189 177.576 310.253C177.474 310.314 177.422 310.397 177.422 310.501C177.422 310.583 177.455 310.653 177.522 310.71C177.588 310.767 177.701 310.813 177.862 310.848L178.489 310.974C178.825 311.043 179.076 311.154 179.241 311.307C179.407 311.461 179.489 311.662 179.489 311.911C179.489 312.138 179.422 312.337 179.289 312.509C179.156 312.68 178.975 312.814 178.743 312.91C178.513 313.005 178.248 313.052 177.948 313.052C177.489 313.052 177.124 312.957 176.852 312.766C176.582 312.573 176.423 312.312 176.377 311.981L177.321 311.932C177.35 312.072 177.419 312.178 177.528 312.252C177.638 312.324 177.779 312.36 177.95 312.36C178.118 312.36 178.253 312.328 178.356 312.263C178.459 312.197 178.512 312.112 178.513 312.008C178.512 311.921 178.475 311.85 178.403 311.794C178.331 311.737 178.22 311.694 178.069 311.664L177.47 311.544C177.132 311.476 176.88 311.359 176.715 311.192C176.551 311.026 176.469 310.813 176.469 310.555C176.469 310.332 176.529 310.141 176.649 309.98C176.771 309.819 176.942 309.695 177.161 309.608C177.382 309.521 177.64 309.477 177.936 309.477C178.374 309.477 178.718 309.57 178.969 309.754C179.221 309.939 179.368 310.191 179.41 310.51Z" fill="white"/>
</g>
</g>
<defs>
<filter id="filter0_d_3242_54990" x="-0.401601" y="-1.05785" width="334.811" height="291.436" filterUnits="userSpaceOnUse" color-interpolation-filters="sRGB">
<feFlood flood-opacity="0" result="BackgroundImageFix"/>
<feColorMatrix in="SourceAlpha" type="matrix" values="0 0 0 0 0 0 0 0 0 0 0 0 0 0 0 0 0 0 127 0" result="hardAlpha"/>
<feOffset/>
<feGaussianBlur stdDeviation="0.528926"/>
<feComposite in2="hardAlpha" operator="out"/>
<feColorMatrix type="matrix" values="0 0 0 0 0 0 0 0 0 0 0 0 0 0 0 0 0 0 0.25 0"/>
<feBlend mode="normal" in2="BackgroundImageFix" result="effect1_dropShadow_3242_54990"/>
<feBlend mode="normal" in="SourceGraphic" in2="effect1_dropShadow_3242_54990" result="shape"/>
</filter>
<clipPath id="clip0_3242_54990">
<rect x="0.65625" width="332.694" height="320" rx="10" fill="white"/>
</clipPath>
<clipPath id="clip1_3242_54990">
<rect x="0.65625" width="332.694" height="289.322" rx="5" fill="white"/>
</clipPath>
<clipPath id="clip2_3242_54990">
<rect width="237.488" height="8.46281" fill="white" transform="translate(48.2578 67.1719)"/>
</clipPath>
<clipPath id="clip3_3242_54990">
<rect width="226.909" height="10.5785" fill="white" transform="translate(53.5469 85.1562)"/>
</clipPath>
<clipPath id="clip4_3242_54990">
<rect width="237.488" height="8.46281" fill="white" transform="translate(48.2578 108.961)"/>
</clipPath>
<clipPath id="clip5_3242_54990">
<rect width="226.909" height="10.5785" fill="white" transform="translate(53.5469 126.945)"/>
</clipPath>
<clipPath id="clip6_3242_54990">
<rect width="237.488" height="8.46281" fill="white" transform="translate(48.2578 150.742)"/>
</clipPath>
<clipPath id="clip7_3242_54990">
<rect width="226.909" height="10.5785" fill="white" transform="translate(53.5469 168.727)"/>
</clipPath>
<clipPath id="clip8_3242_54990">
<rect width="237.488" height="8.46281" fill="white" transform="translate(48.2578 192.531)"/>
</clipPath>
<clipPath id="clip9_3242_54990">
<rect width="237.488" height="8.46281" fill="white" transform="translate(48.2578 234.312)"/>
</clipPath>
<clipPath id="clip10_3242_54990">
<rect width="226.909" height="10.5785" fill="white" transform="translate(53.5469 252.297)"/>
</clipPath>
<clipPath id="clip11_3242_54990">
<rect x="145.539" y="300.961" width="42.9256" height="19.0413" rx="4.2314" fill="white"/>
</clipPath>
</defs>
</svg>
